<svg id="Layer_1" height="512" viewBox="0 0 512 512" width="512" xmlns="http://www.w3.org/2000/svg" data-name="Layer 1"><path d="m402.562 57.249-29.493-29.492a11.612 11.612 0 0 0 -15.338-.94l-16.354 12.776a119.694 119.694 0 0 0 -21.831-9.049l-2.531-20.59a11.607 11.607 0 0 0 -11.509-10.183h-41.706a11.608 11.608 0 0 0 -11.512 10.181l-2.53 20.592a119.712 119.712 0 0 0 -21.832 9.048l-16.354-12.774a11.6 11.6 0 0 0 -15.338.939l-29.491 29.491a11.6 11.6 0 0 0 -.94 15.338l12.774 16.355a119.705 119.705 0 0 0 -9.047 21.831l-20.591 2.528a11.607 11.607 0 0 0 -10.183 11.509v41.708a11.61 11.61 0 0 0 10.182 11.509l20.591 2.531a119.744 119.744 0 0 0 9.048 21.831l-12.777 16.358a11.6 11.6 0 0 0 .938 15.338l29.492 29.492a11.607 11.607 0 0 0 15.337.94l16.355-12.776c.612.328 1.233.641 1.852.959a19.4 19.4 0 0 0 6.831 29.954 29.388 29.388 0 0 0 29.26 27.118h37.565a29.386 29.386 0 0 0 29.26-27.118 19.4 19.4 0 0 0 6.83-29.955c.619-.318 1.239-.631 1.852-.959l16.355 12.777a11.611 11.611 0 0 0 15.338-.94l29.493-29.492a11.607 11.607 0 0 0 .939-15.337l-12.775-16.355a119.705 119.705 0 0 0 9.047-21.831l20.594-2.531a11.61 11.61 0 0 0 10.181-11.509v-41.708a11.607 11.607 0 0 0 -10.177-11.513l-20.594-2.532a119.752 119.752 0 0 0 -9.047-21.831l12.774-16.35a11.607 11.607 0 0 0 -.938-15.338zm-78.05 215.234h-79.72a7.444 7.444 0 1 1 0-14.887h79.72a7.444 7.444 0 0 1 0 14.887zm-39.861-121.175a6.5 6.5 0 1 1 6.5-6.5 6.5 6.5 0 0 1 -6.5 6.5zm36.137 92.339v1.953h-9.865v-61.517l8.944-4.989a14.588 14.588 0 1 0 -4.6-11.176l-11.867 6.618-.161.086c-3.57 1.879-4.32 4.6-4.32 6.56v64.418h-8.272v-83.311a18.5 18.5 0 1 0 -12 0v83.311h-8.27v-64.418c0-1.954-.749-4.679-4.318-6.558l-12.027-6.707a14.619 14.619 0 1 0 -4.6 11.177l8.944 4.989v61.517h-9.865v-1.949a18.282 18.282 0 0 0 -8.128-15.34 78.9 78.9 0 1 1 88.526 0 18.284 18.284 0 0 0 -8.121 15.336zm6.452-75.185a2.6 2.6 0 1 1 2.6 2.6 2.6 2.6 0 0 1 -2.6-2.6zm-85.177 0a2.6 2.6 0 1 1 -2.6-2.6 2.6 2.6 0 0 1 2.6 2.6zm61.371 129.309h-37.565a17.37 17.37 0 0 1 -16.852-13.288h71.27a17.372 17.372 0 0 1 -16.853 13.288zm75.383-213.079a6 6 0 0 0 -.461 6.705 107.616 107.616 0 0 1 10.936 26.386 6 6 0 0 0 5.067 4.414l24.189 2.973v40.994l-24.189 2.972a6 6 0 0 0 -5.067 4.414 107.61 107.61 0 0 1 -10.935 26.385 6 6 0 0 0 .46 6.706l15.007 19.211-28.987 28.987-19.211-15.007a6 6 0 0 0 -6.7-.461c-1.977 1.148-4 2.223-6.055 3.245a6.157 6.157 0 0 1 2.789-4.382 90.9 90.9 0 1 0 -102.009 0 6.151 6.151 0 0 1 2.792 4.383c-2.053-1.023-4.079-2.1-6.055-3.245a6 6 0 0 0 -6.706.46l-19.21 15.007-28.988-28.987 15.006-19.211a6 6 0 0 0 .461-6.7 107.661 107.661 0 0 1 -10.935-26.386 6 6 0 0 0 -5.068-4.414l-24.187-2.972v-40.999l24.187-2.973a6 6 0 0 0 5.068-4.413 107.662 107.662 0 0 1 10.93-26.384 6 6 0 0 0 -.461-6.705l-15.006-19.214 28.988-28.987 19.21 15.006a6 6 0 0 0 6.705.461 107.664 107.664 0 0 1 26.387-10.936 6 6 0 0 0 4.414-5.067l2.971-24.187h40.994l2.973 24.188a6 6 0 0 0 4.414 5.066 107.705 107.705 0 0 1 26.386 10.936 6 6 0 0 0 6.7-.461l19.211-15.006 28.987 28.987zm-160.14 343.831h139.329a36.194 36.194 0 0 0 28.836-13.651l85.746-104.637a33.284 33.284 0 0 0 -46.088-48.035l-68.188 64.09a29.179 29.179 0 0 0 -23.15-11.424h-89.408a119.685 119.685 0 0 0 -144.265 22.152 19.43 19.43 0 0 0 -24.622 2.322l-41.85 41.85a19.427 19.427 0 0 0 0 27.444l97.921 97.922a19.432 19.432 0 0 0 27.444 0l41.85-41.851a19.418 19.418 0 0 0 2.107-24.913l9.1-9.1a6.994 6.994 0 0 1 5.238-2.169zm-24.929 27.7-41.848 41.848a7.434 7.434 0 0 1 -10.474 0l-97.926-97.922a7.414 7.414 0 0 1 0-10.474l41.851-41.851a7.416 7.416 0 0 1 10.474 0l97.921 97.922a7.416 7.416 0 0 1 .002 10.475zm2.318-25.125-85.846-85.849a107.659 107.659 0 0 1 131-19.169 6 6 0 0 0 2.97.786h90.979a17.218 17.218 0 0 1 0 34.436h-69.655a6 6 0 0 0 0 12h69.652a29.2 29.2 0 0 0 28.511-35.582l71.061-66.791a21.285 21.285 0 0 1 29.3 30.881 5.679 5.679 0 0 0 -.507.545l-85.97 104.911a24.234 24.234 0 0 1 -19.555 9.257h-139.329a19.024 19.024 0 0 0 -13.723 5.685zm-51.507 14.158a16.12 16.12 0 1 0 16.12 16.119 16.138 16.138 0 0 0 -16.12-16.121zm0 20.239a4.12 4.12 0 1 1 4.12-4.12 4.125 4.125 0 0 1 -4.12 4.118z"/></svg>