<svg id="Layer_1" height="512" viewBox="0 0 512 512" width="512" xmlns="http://www.w3.org/2000/svg" data-name="Layer 1"><path d="m256.572 268.5h-.572a8 8 0 0 0 0 16h.572a8 8 0 1 0 0-16zm-8.28-59.03v47.056a8 8 0 1 0 16 0v-47.054a8 8 0 1 0 -16 0zm8-79.2a128.328 128.328 0 0 0 97.321 45.192 124.362 124.362 0 0 0 16.4-1.079c-6.013 129.631-57.627 178.973-113.72 211.528-56.1-32.555-107.722-81.9-113.73-211.522 42.52 5.636 85.391-10.987 113.73-44.113zm120.382 26.73a8 8 0 0 1 9.7 8.036c-1.8 64.4-13.852 114.7-36.869 153.764-19.781 33.591-48.15 60.051-89.284 83.29a7.982 7.982 0 0 1 -7.865 0c-41.134-23.239-69.5-49.7-89.284-83.29-23.009-39.068-35.072-89.361-36.872-153.763a8 8 0 0 1 9.7-8.036c42.877 9.3 87.6-8.1 113.909-44.328a7.993 7.993 0 0 1 12.951 0c26.316 36.227 71.04 53.627 113.914 44.327zm-120.359 23v.007l65.509 113.48c0 .007-.008.021-.008.028h-.016l-131.039-.007c0-.014-.007-.014-.007-.021v-.015l65.518-113.472zm-.022-16a15.854 15.854 0 0 1 13.88 8.008l65.509 113.465a16.028 16.028 0 0 1 -13.88 24.047h-131.025a16.028 16.028 0 0 1 -13.88-24.047l65.516-113.463a15.838 15.838 0 0 1 13.88-8.01zm-210.85 92.25c0-113.844 90.684-206.878 203.6-210.707l-31.627-31.633a8 8 0 0 1 11.316-11.323l45.168 45.185a7.977 7.977 0 0 1 0 11.308l-45.171 45.178a8 8 0 0 1 -11.316-11.309l31.39-31.39c-103.975 3.951-187.358 89.762-187.358 194.691a195.1 195.1 0 0 0 130.368 183.925 8 8 0 0 1 -2.651 15.552 8.233 8.233 0 0 1 -2.65-.45 211.124 211.124 0 0 1 -141.069-199.027zm421.693 0c0 116.259-94.584 210.85-210.843 210.85-4.786 0-9.587-.178-14.38-.5l31.99 31.99a8 8 0 1 1 -11.309 11.316l-45.178-45.178a8 8 0 0 1 0-11.308l45.178-45.178a8 8 0 1 1 11.306 11.309l-31.069 31.075q6.718.462 13.459.472c107.443 0 194.841-87.412 194.841-194.848a194.741 194.741 0 0 0 -146.017-188.683 8 8 0 1 1 3.993-15.488 210.737 210.737 0 0 1 158.029 204.171z" fill-rule="evenodd"/></svg>