<svg height="480pt" viewBox="0 0 480 480.10132" width="480pt" xmlns="http://www.w3.org/2000/svg"><path d="m430.691406 112.535156c17.609375-16.816406 22.335938-43.082031 11.695313-64.980468-10.640625-21.898438-34.210938-34.414063-58.3125-30.957032-24.101563 3.453125-43.210938 22.085938-47.269531 46.089844-4.0625 24.007812 7.855468 47.886719 29.476562 59.078125-8.980469 7.519531-14.1875 18.621094-14.230469 30.335937v64h-24v-64c-.042969-28.335937-21.226562-52.183593-49.359375-55.566406 16.570313-15.796875 21.855469-40.089844 13.347656-61.34375-8.507812-21.257812-29.09375-35.191406-51.988281-35.191406s-43.480469 13.933594-51.988281 35.191406c-8.507812 21.253906-3.222656 45.546875 13.347656 61.34375-28.132812 3.382813-49.316406 27.230469-49.359375 55.566406v64h-24v-64c-.042969-11.714843-5.25-22.816406-14.230469-30.335937 21.621094-11.191406 33.539063-35.070313 29.476563-59.078125-4.0625-24.003906-23.167969-42.636719-47.269531-46.089844-24.101563-3.457031-47.671875 9.058594-58.3125 30.957032-10.640625 21.898437-5.914063 48.164062 11.695312 64.980468-28.132812 3.382813-49.316406 27.230469-49.3593748 55.566406v120c.03125 21.601563 12.4804688 41.261719 31.9999998 50.519532v141.480468h16v-136.640624c2.625.375 56 .640624 56 .640624 4.417969 0 8 3.582032 8 8v128h64v-152h56v136h-32v16h80v-16h-32v-136h56v152h64v-128c0-4.417968 3.582031-8 8-8 0 0 53.375-.265624 56-.640624v136.640624h16v-141.480468c19.519531-9.257813 31.96875-28.917969 32-50.519532v-120c-.042969-28.335937-21.226562-52.183593-49.359375-55.566406zm-78.640625-40.433594c0-22.089843 17.910157-40 40-40 22.089844 0 40 17.910157 40 40 0 22.089844-17.910156 40-40 40-22.082031-.027343-39.972656-17.917968-40-40zm-94.945312 40-17.054688 25.601563-17.054687-25.601563zm-57.054688-56c0-22.089843 17.910157-40 40-40 22.089844 0 40 17.910157 40 40 0 22.089844-17.910156 40-40 40-22.082031-.027343-39.972656-17.917968-40-40zm-32 96c.066407-20.480468 15.621094-37.585937 36-39.59375l36 53.992188 36-54.015625c20.390625 2.007813 35.945313 19.128906 36 39.617187v64h-32v48h-80v-48h-32zm-120-80c0-22.089843 17.910157-40 40-40 22.089844 0 40 17.910157 40 40 0 22.089844-17.910156 40-40 40-22.082031-.027343-39.972656-17.917968-40-40zm112 392h-32v-112c0-13.253906-10.746093-24-24-24h-48c-22.082031-.027343-39.972656-17.917968-40-40v-120c.027344-22.082031 17.917969-39.972656 40-40h32c13.253907 0 24 10.746094 24 24v80h72v32h-96c-4.417969 0-8-3.582031-8-8v-96h-16v96c0 13.253907 10.746094 24 24 24h32c22.082031.027344 39.972657 17.917969 40 40zm15.359375-152c-1.75-12.164062-7.460937-23.410156-16.246094-32h161.773438c-8.785156 8.589844-14.496094 19.835938-16.246094 32zm288.640625-24c-.027343 22.082032-17.917969 39.972657-40 40h-48c-13.253906 0-24 10.746094-24 24v112h-32v-144c.027344-22.082031 17.917969-39.972656 40-40h32c13.253907 0 24-10.746093 24-24v-96h-16v96c0 4.417969-3.582031 8-8 8h-96v-32h72v-80c0-13.253906 10.746094-24 24-24h32c22.082031.027344 39.972657 17.917969 40 40zm0 0"/></svg>