<svg id="Capa_1" enable-background="new 0 0 512.001 512.001" height="512" viewBox="0 0 512.001 512.001" width="512" xmlns="http://www.w3.org/2000/svg"><g><g><g><g><path d="m131.66 161.12c-4.065 0-7.795-2.546-9.292-6.321-1.534-3.871-.441-8.448 2.698-11.195 3.182-2.785 7.93-3.257 11.591-1.137 3.664 2.121 5.649 6.449 4.812 10.613-.927 4.618-5.1 8.04-9.809 8.04z"/></g></g><g><g><path d="m314.42 366.461c-4.178 0-7.994-2.688-9.412-6.615-1.377-3.814-.252-8.236 2.815-10.902 3.254-2.828 8.024-3.247 11.729-1.053 3.461 2.05 5.383 6.167 4.742 10.136-.773 4.787-5.016 8.434-9.874 8.434z"/></g></g></g><g><g><path d="m510.42 74.339c-1.359-3.665-4.73-6.202-8.629-6.493l-54.517-4.078-4.078-54.513c-.291-3.898-2.827-7.269-6.492-8.629-3.667-1.361-7.787-.46-10.551 2.304l-43.576 43.575c-7.219 7.217-11.398 16.809-11.771 27.01-.007.181-.009.362-.005.543l.594 33.388c-39.085-31.607-88.805-50.559-142.87-50.559-125.482 0-227.569 102.082-227.569 227.558s102.087 227.558 227.569 227.558 227.568-102.082 227.568-227.558c0-54.93-19.565-105.376-52.091-144.737l33 .533c.054.001.107.001.161.001.122 0 .244-.002.366-.007 10.199-.373 19.792-4.553 27.01-11.771l43.577-43.575c2.764-2.764 3.664-6.886 2.304-10.55zm-113.701-13.692 28.16-28.159 2.752 36.786-36.267 36.324-.561-31.598c.244-5.044 2.339-9.777 5.916-13.353zm-168.194 431.354c-114.454 0-207.569-93.11-207.569-207.558s93.114-207.558 207.569-207.558c53.168 0 101.729 20.095 138.492 53.086l-23.161 23.16c-30.805-27.087-71.183-43.534-115.331-43.534-20.335 0-40.273 3.478-59.262 10.337-5.194 1.876-7.884 7.608-6.008 12.803 1.877 5.194 7.605 7.887 12.803 6.008 16.803-6.07 34.455-9.148 52.467-9.148 38.633 0 74.007 14.221 101.163 37.701l-23.2 23.199c-21.167-17.595-48.351-28.189-77.963-28.189-67.349 0-122.141 54.79-122.141 122.135s54.792 122.135 122.141 122.135c19.248 0 38.439-4.616 55.497-13.349 4.916-2.517 6.86-8.542 4.344-13.458-2.517-4.917-8.544-6.859-13.459-4.344-14.453 7.4-30.059 11.152-46.382 11.152-56.32 0-102.141-45.817-102.141-102.135s45.82-102.135 102.141-102.135c24.096 0 46.266 8.392 63.752 22.4l-23.328 23.327c-11.393-8.187-25.354-13.016-40.423-13.016-38.282 0-69.427 31.143-69.427 69.423s31.145 69.423 69.427 69.423c38.281 0 69.426-31.143 69.426-69.423 0-16.012-5.452-30.774-14.594-42.532l23.242-23.241c15.006 17.783 24.066 40.738 24.066 65.772 0 10.983-1.74 21.792-5.174 32.125-1.741 5.241 1.097 10.902 6.338 12.643 5.237 1.74 10.901-1.095 12.643-6.337 4.109-12.371 6.193-25.301 6.193-38.431 0-30.55-11.275-58.515-29.882-79.955l23.166-23.165c24.51 27.402 39.431 63.551 39.431 103.12 0 85.382-69.468 154.846-154.854 154.846s-154.857-69.463-154.857-154.845c0-32.989 10.278-64.498 29.723-91.121 3.258-4.46 2.283-10.716-2.177-13.973s-10.716-2.284-13.974 2.177c-21.962 30.071-33.572 65.659-33.572 102.917 0 96.411 78.44 174.846 174.854 174.846 96.415 0 174.854-78.436 174.854-174.846 0-45.084-17.153-86.235-45.275-117.275l23.143-23.142c34.034 36.984 54.845 86.315 54.845 140.418.002 114.447-93.113 207.557-207.566 207.557zm49.425-207.558c0 27.252-22.172 49.423-49.426 49.423s-49.427-22.171-49.427-49.423 22.173-49.423 49.427-49.423c9.54 0 18.456 2.72 26.018 7.42l-31.897 31.895c-3.905 3.905-3.905 10.237 0 14.142 1.953 1.953 4.512 2.929 7.071 2.929s5.118-.977 7.071-2.929l32.276-32.274c5.598 8.011 8.887 17.748 8.887 28.24zm172.448-170.122c-3.578 3.578-8.316 5.673-13.363 5.916l-31.489-.509 19.211-19.21c.214-.214.414-.437.605-.664l16.416-16.442 36.779 2.752z"/></g></g></g></svg>