<?xml version="1.0"?>
<svg xmlns="http://www.w3.org/2000/svg" id="Layer_3" data-name="Layer 3" viewBox="0 0 64 64" width="512" height="512"><path d="M62,26H59.348a27.669,27.669,0,0,0-3.766-9.1l1.874-1.874a1,1,0,0,0,0-1.414L50.385,6.544a1,1,0,0,0-1.414,0L47.1,8.418A27.647,27.647,0,0,0,38,4.652V2a1,1,0,0,0-1-1H27a1,1,0,0,0-1,1V4.652a27.647,27.647,0,0,0-9.1,3.766L15.029,6.544a1,1,0,0,0-1.414,0L6.544,13.615a1,1,0,0,0,0,1.414L8.418,16.9A27.669,27.669,0,0,0,4.652,26H2a1,1,0,0,0-1,1V37a1,1,0,0,0,1,1H4.652a27.669,27.669,0,0,0,3.766,9.1L6.544,48.971a1,1,0,0,0,0,1.414l1.964,1.963A6.926,6.926,0,0,0,8,54.919V62a1,1,0,0,0,1,1H55a1,1,0,0,0,1-1V54.919a6.926,6.926,0,0,0-.508-2.571l1.964-1.963a1,1,0,0,0,0-1.414L55.582,47.1A27.669,27.669,0,0,0,59.348,38H62a1,1,0,0,0,1-1V27A1,1,0,0,0,62,26ZM10,54.919a5.013,5.013,0,0,1,4.02-4.9L23.6,48.1l3.62,4.525a1,1,0,0,0,1.562,0L31,49.851V61H10ZM12,32A19.982,19.982,0,0,1,43.044,15.341,18.036,18.036,0,0,1,35.528,17h-5.87a16.591,16.591,0,0,0-7.378,1.742,5.936,5.936,0,0,0-2.856,7.512l1.232,3.079A2.991,2.991,0,0,0,22,35h1v3a5.006,5.006,0,0,0,5,5v1.323l-4.287,1.715-4.909.981A19.957,19.957,0,0,1,12,32ZM45.2,47.019l-4.909-.981L36,44.323V43a5.006,5.006,0,0,0,5-5V35h1a2.99,2.99,0,0,0,1.488-5.589l1.334-2.335A4.131,4.131,0,0,0,43.6,21.643,7.775,7.775,0,0,0,45,17.171v-.339a19.956,19.956,0,0,1,.2,30.187ZM23,33H22a1,1,0,0,1,0-2h1Zm0-5v1h-.323l-1.4-3.488a3.937,3.937,0,0,1,1.894-4.981A14.561,14.561,0,0,1,29.658,19h5.87a20.063,20.063,0,0,0,7.46-1.449,5.789,5.789,0,0,1-1.7,3.742,1,1,0,0,0,.465,1.677,2.125,2.125,0,0,1,1.328,3.114L41.42,29H41V28a3,3,0,0,0-3-3H26A3,3,0,0,0,23,28Zm18,3h1a1,1,0,0,1,0,2H41ZM25,28a1,1,0,0,1,1-1H38a1,1,0,0,1,1,1V38a3,3,0,0,1-3,3H28a3,3,0,0,1-3-3Zm9,15v1.465L32,45.8l-2-1.333V43Zm-5.117,3.124,1.655,1.1L28,50.4l-2.377-2.971Zm6.234,0,3.26,1.3L36,50.4l-2.538-3.172ZM44,61H38V59h6Zm10,0H46V58a1,1,0,0,0-1-1H37a1,1,0,0,0-1,1v3H33V49.851l2.219,2.774a1,1,0,0,0,1.562,0L40.4,48.1l9.579,1.916a5.013,5.013,0,0,1,4.02,4.9Zm7-25H58.53a1,1,0,0,0-.982.816,25.724,25.724,0,0,1-4.076,9.845,1,1,0,0,0,.118,1.272l1.745,1.745-.877.877a6.983,6.983,0,0,0-4.085-2.5L47.6,47.5a22,22,0,1,0-31.2,0l-2.771.554a6.983,6.983,0,0,0-4.085,2.5l-.877-.877,1.745-1.745a1,1,0,0,0,.118-1.272,25.724,25.724,0,0,1-4.076-9.845A1,1,0,0,0,5.47,36H3V28H5.47a1,1,0,0,0,.982-.816,25.724,25.724,0,0,1,4.076-9.845,1,1,0,0,0-.118-1.272L8.665,14.322l5.657-5.657,1.745,1.745a1,1,0,0,0,1.272.118,25.719,25.719,0,0,1,9.845-4.075A1,1,0,0,0,28,5.47V3h8V5.47a1,1,0,0,0,.816.983,25.719,25.719,0,0,1,9.845,4.075,1,1,0,0,0,1.272-.118l1.745-1.745,5.657,5.657L53.59,16.067a1,1,0,0,0-.118,1.272,25.724,25.724,0,0,1,4.076,9.845A1,1,0,0,0,58.53,28H61Z"/><path d="M28.5,33A1.5,1.5,0,1,0,27,31.5,1.5,1.5,0,0,0,28.5,33Z"/><path d="M35.5,33A1.5,1.5,0,1,0,34,31.5,1.5,1.5,0,0,0,35.5,33Z"/><rect x="30" y="37" width="4" height="2"/></svg>
