<svg id="Layer_1" enable-background="new 0 0 68 68" height="512" viewBox="0 0 68 68" width="512" xmlns="http://www.w3.org/2000/svg"><g id="_x39_2"><path d="m47 2h-29.3c-.2 0-.5.1-.7.3l-14.7 14.7c-.2.2-.3.5-.3.7v44.3c0 2.2 1.8 4 4 4h41c2.2 0 4-1.8 4-4v-21.9c0-.6-.4-1-1-1s-1 .4-1 1v21.9c0 1.1-.9 2-2 2h-4.7v-24.2c0-.6-.4-1-1-1s-1 .4-1 1v24.2h-8.7v-10.8c0-.6-.4-1-1-1s-1 .4-1 1v10.8h-8.7v-18.8c0-.6-.4-1-1-1s-1 .4-1 1v18.8h-7.5v-6.2c0-.6-.4-1-1-1s-1 .4-1 1v6.2h-3.4c-1.1 0-2-.9-2-2v-43.3h10.7c2.2 0 4-1.8 4-4v-10.7h28.3c1.1 0 2 .9 2 2v5c-.9-.2-1.9-.3-2.9-.3-7.2 0-13.1 5.9-13.1 13.1 0 4 1.8 7.6 4.6 10l-5.6 7.7c-.5-.2-.9-.3-1.4-.3-.9 0-1.8.3-2.5.9l-4.6-3.4c.2-.5.3-1 .3-1.5 0-2.2-1.8-4-4-4s-4 1.8-4 4c0 .9.3 1.7.9 2.5l-4.9 6.5c-.5-.2-1-.3-1.5-.3-2.2 0-4 1.8-4 4s1.8 4 4 4 4-1.8 4-4c0-.9-.3-1.8-.9-2.5l4.9-6.5c.5.2 1 .3 1.5.3.9 0 1.8-.3 2.5-.9l4.6 3.4c-.2.5-.3 1-.3 1.5 0 2.2 1.8 4 4 4s4-1.8 4-4c0-.9-.3-1.8-.9-2.5l5.7-7.8c2 1.2 4.3 1.9 6.8 1.9s4.9-.7 6.9-2l1.9 2.3-1.4 1.2c-.4.4-.5 1-.1 1.4l5.8 6.8c1.4 1.7 3.8 1.8 5.4.5 1.6-1.4 1.9-3.9.5-5.5l-5.7-6.8c-.3-.4-1-.5-1.4-.1l-1.5 1.2-1.9-2.2c2.8-2.4 4.5-5.9 4.5-9.9 0-5.5-3.4-10.2-8.2-12.1v-5.6c0-2.2-1.8-4-4-4zm-32.3 14.7h-9.3c2.4-2.4 7.7-7.7 11.3-11.3v9.3c0 1.1-.9 2-2 2zm-4.3 35.1c-1.1 0-2-.9-2-2s.9-2 2-2 2 .9 2 2c-.1 1.1-1 2-2 2zm7.5-14.6c0-1.1.9-2 2-2s2 .9 2 2c0 1.2-1 2-2 2-1.2 0-2-1-2-2zm12.7 10c-1.1 0-2-.9-2-2 0-1 .9-2 2-2s2 .9 2 2-.9 2-2 2zm27.9-10.5 5.1 6c.7.8.6 2-.2 2.7-.7.6-1.8.6-2.6-.2l-5.2-6c.1-.1 3.1-2.6 2.9-2.5zm-1.3-13c0 6.1-5 11.1-11.1 11.1-6 0-11.1-4.9-11.1-11.1 0-6.1 5-11.1 11.1-11.1s11.1 5 11.1 11.1z"/><path d="m45.1 16.4v.8c-1.6.4-2.8 1.9-2.8 3.7 0 2.1 1.7 3.8 3.8 3.8 1 0 1.8.8 1.8 1.8s-.8 1.8-1.8 1.8-1.8-.8-1.8-1.8c0-.6-.4-1-1-1s-1 .4-1 1c0 1.8 1.2 3.3 2.8 3.7v.8c0 .6.4 1 1 1s1-.4 1-1v-.8c1.6-.4 2.8-1.9 2.8-3.7 0-2.1-1.7-3.8-3.8-3.8-1 0-1.8-.8-1.8-1.8s.8-1.8 1.8-1.8 1.8.8 1.8 1.8c0 .6.4 1 1 1s1-.4 1-1c0-1.8-1.2-3.3-2.8-3.7v-.8c0-.6-.4-1-1-1s-1 .5-1 1z"/><path d="m17.4 27.6c0 .6.4 1 1 1h11.6c.6 0 1-.4 1-1s-.4-1-1-1h-11.6c-.6 0-1 .5-1 1z"/><path d="m33.8 12.7c.6 0 1-.4 1-1s-.4-1-1-1h-11.7c-.6 0-1 .4-1 1s.4 1 1 1z"/><path d="m14.4 31.8c.6 0 1-.4 1-1v-6.4c0-.6-.4-1-1-1h-6.4c-.6 0-1 .4-1 1v6.4c0 .6.4 1 1 1zm-5.4-6.4h4.4v4.4h-4.4z"/></g></svg>