<svg clip-rule="evenodd" fill-rule="evenodd" height="512" image-rendering="optimizeQuality" shape-rendering="geometricPrecision" text-rendering="geometricPrecision" viewBox="0 0 1707 1707" width="512" xmlns="http://www.w3.org/2000/svg"><g id="Layer_x0020_1"><path d="m1309 1049c-8 0-16-3-21-11l-60-84-63 85c-20 27-61-4-41-31l73-98-71-99c-20-27 22-58 42-30l61 86 62-83c20-27 61 4 41 31l-71 96 69 97c12 17-1 41-21 41zm39-607h-990c-33 0-33-51 0-51h990c34 0 34 51 0 51zm0 145h-990c-33 0-33-52 0-52h990c34 0 34 52 0 52zm187 717v-910c0-140-81-253-180-253h-1003c-100 0-180 113-180 253v910h530 1 1 1 1 1l1 1h1 1l1 1h1 1v1h1l1 1h1l1 1 1 1h1v1h1c0 1 7 11 7 19v77h252v-77c0-19 10-20 21-26h4 1 1zm-1415 0v-910c0-168 104-305 232-305h1003c128 0 232 137 232 305v910h94c14 0 26 11 26 26 0 158-129 287-288 287h-1131c-159 0-288-129-288-287 0-15 12-26 26-26zm556 51h-623c13 118 113 211 235 211h1131c121 0 222-93 235-211h-623v78c0 14-12 26-26 26h-304c-14 0-25-11-25-26zm45-250c-17 0-30-16-25-33l95-356c9-32 59-18 50 14l-95 356c-3 11-14 19-25 19zm254-55c-57 0-100-37-97-96v-159c0-33 51-33 51 0 0 32 2 140 0 163-5 54 96 54 91 0-2-22 0-132 0-163 0-33 52-33 52 0v159c2 59-41 96-97 96zm-508-17c-57 0-100-37-97-96v-159c0-33 51-33 51 0s2 138 0 163c-4 54 96 54 91 0-2-25 0-130 0-163s52-33 52 0v159c2 59-41 96-97 96zm173-1c-14 0-26-11-26-26v-227c0-34 52-34 52 0v227c0 15-12 26-26 26z" fill="rgb(0,0,0)"/></g></svg>