<svg id="Capa_1" enable-background="new 0 0 512 512" height="512" viewBox="0 0 512 512" width="512" xmlns="http://www.w3.org/2000/svg"><path d="m78.555 93.379h188.432c4.143 0 7.5-3.357 7.5-7.5s-3.357-7.5-7.5-7.5h-188.432c-4.143 0-7.5 3.357-7.5 7.5s3.357 7.5 7.5 7.5z"/><path d="m78.555 145.444h188.432c4.143 0 7.5-3.357 7.5-7.5s-3.357-7.5-7.5-7.5h-188.432c-4.143 0-7.5 3.357-7.5 7.5s3.357 7.5 7.5 7.5z"/><path d="m179.898 190.01c0-4.143-3.357-7.5-7.5-7.5h-93.843c-4.143 0-7.5 3.357-7.5 7.5s3.357 7.5 7.5 7.5h93.844c4.142 0 7.499-3.358 7.499-7.5z"/><path d="m511.979 393.759-3.174-113.541c-.003-.099-.008-.197-.015-.297-1.432-21.163-16.937-38.958-37.703-43.271l-3.501-.728v-23.029c0-4.143-3.357-7.5-7.5-7.5s-7.5 3.357-7.5 7.5v19.912l-28.916-6.008c-2.188-.455-3.775-2.407-3.775-4.642v-7.633c6.257-5.755 20.521-17.088 21.036-41.157.001-.051.002-.102.002-.152l.023-21.253c4.287 2.19 8.379 3.536 11.63 4.361v26.609c0 4.143 3.357 7.5 7.5 7.5s7.5-3.357 7.5-7.5c0-8.337 0-33.351 0-45.394 0-26.876-14.127-50.501-35.334-63.883v-24.464h8.059c10.109 0 18.334-8.225 18.334-18.334v-11.351c0-10.109-8.225-18.334-18.334-18.334h-421.977c-10.109 0-18.334 8.224-18.334 18.334v11.352c0 10.109 8.225 18.334 18.334 18.334h8.059v263.327h-8.059c-10.109 0-18.334 8.224-18.334 18.333v11.352c0 10.109 8.225 18.334 18.334 18.334h284.545v51.606c0 6.235 1.72 12.074 4.703 17.077-4.087 5.124-6.67 11.299-7.417 17.936l-5.463 48.547c-.906 8.048 5.397 15.128 13.521 15.128h155.569c8.112 0 14.428-7.069 13.521-15.129-5.85-51.078-5.85-51.078-5.85-51.078 9.935-1.959 19.03-6.865 26.262-14.302 9.576-9.847 14.638-22.832 14.254-36.562zm-91.359-152.277 24.317 5.052c-4.64 23.951-29.212 41.916-58.93 41.916s-54.289-17.964-58.929-41.915l24.316-5.052c7.861-1.633 13.851-7.91 15.351-15.576 5.567 3.462 11.997 6.033 19.415 6.116h.084s.056 0 .084 0c7.235-.081 13.528-2.531 19-5.863 1.581 7.551 7.52 13.708 15.292 15.322zm-101.192-8.677v-71.925c3.894 1.136 7.912 1.968 12.042 2.501l.085 9.983c.414 19.329 9.335 30.4 20.564 40.723v8.067c0 2.234-1.588 4.187-3.776 4.642zm106.506-59.688c-.397 17.036-9.954 24.627-16.285 30.449-6.446 5.933-14.465 13.312-23.405 13.456-8.94-.145-16.959-7.524-23.406-13.457-6.259-5.759-15.917-13.293-16.284-30.424l-.077-9.109c26.693-1.063 54.343-13.385 76.342-28.36.988 1.562 2.048 3.002 3.152 4.351zm26.653-35.581v3.147c-6.701-2.385-15.778-7.609-19.975-18.891-1.779-4.783-7.728-6.434-11.717-3.239-.566.454-55.52 43.802-101.468 26.565v-7.583c0-33.359 27.141-60.5 60.5-60.5h12.159c33.36.001 60.501 27.142 60.501 60.501zm-434.253-103.347c-1.838 0-3.334-1.496-3.334-3.334v-11.351c0-1.838 1.496-3.334 3.334-3.334h421.978c1.838 0 3.334 1.496 3.334 3.334v11.352c0 1.838-1.496 3.334-3.334 3.334h-421.978zm0 311.347c-1.838 0-3.334-1.496-3.334-3.334v-11.352c0-1.838 1.496-3.334 3.334-3.334h41.411c4.143 0 7.5-3.357 7.5-7.5s-3.357-7.5-7.5-7.5h-18.352v-263.327h375.86v17.176c-7.877-2.794-16.344-4.329-25.166-4.329h-12.159c-41.631 0-75.5 33.869-75.5 75.5v98.386l-3.5.728c-20.768 4.313-36.272 22.107-37.704 43.271l-1.166 17.211c-.052.838-.987 1.326-1.727.822l-43.311-29.724c-2.014-1.38-4.191-2.438-6.496-3.178-2.943-3.638-5.804-4.822-9.305-7.327-9.681-6.448-22.113-5.626-30.829 1.156l-48.854-33.647c-3.411-2.349-8.081-1.488-10.431 1.923s-1.488 8.081 1.923 10.431l48.632 33.494c-1.519 4.383-1.854 9.108-.918 13.776 1.385 6.907 5.376 12.861 11.238 16.766 5.192 3.433 4.361 2.948 5.635 3.704 1.467 2.746 3.412 5.173 5.771 7.189h-93.928c-4.143 0-7.5 3.357-7.5 7.5s3.357 7.5 7.5 7.5h116.852l28.096 18.02h-216.072zm180.853-64.244-6.242 9.372c-1.755 2.636-5.328 3.351-7.961 1.596l-4.687-3.121c-2.528-1.684-4.249-4.251-4.846-7.229-.598-2.979.001-6.011 1.685-8.538 2.188-3.286 5.803-5.065 9.483-5.065 2.165 0 4.353.616 6.285 1.903l4.686 3.121c.762.507 1.358 1.169 1.786 1.914.024.044.051.086.077.129.977 1.81.951 4.089-.266 5.918zm110.594 214.538 5.289-46.997c.351-3.118 1.419-6.055 3.081-8.633 5.238 3.405 11.478 5.392 18.177 5.392h119.964s.249.622 5.942 50.238zm177.191-75.966c-4.931 5.071-11.096 8.463-17.836 9.918v-99.035c0-4.143-3.357-7.5-7.5-7.5s-7.5 3.357-7.5 7.5v99.845h-117.808c-10.173 0-18.449-8.276-18.449-18.449 0-11.584 0-71.082 0-81.396 0-4.143-3.357-7.5-7.5-7.5s-7.5 3.357-7.5 7.5v14.789h-34.65c-3.781 0-7.485-1.037-10.716-3.001l-58.396-37.453c2.484-1.544 4.642-3.597 6.312-6.104l6.242-9.372c1.089-1.636 1.896-3.376 2.469-5.161l37.693 25.868c10.268 7.075 24.349.293 25.19-12.17l1.165-17.21c.98-14.477 11.585-26.647 25.791-29.599l8.395-1.744c6.089 30.816 36.711 53.859 73.633 53.859s67.545-23.043 73.634-53.859l8.396 1.744c14.159 2.941 24.741 15.043 25.779 29.458l3.17 113.386c.269 9.646-3.287 18.768-10.014 25.686z"/></svg>