<?xml version="1.0" encoding="UTF-8"?>
<svg xmlns="http://www.w3.org/2000/svg" width="512" height="512" viewBox="0 0 128 128"><g><path d="M112.656,30.173l4.484-2.261A5.237,5.237,0,0,0,114.78,18l-3.849.178a13.119,13.119,0,0,0-10.287-.722A59.24,59.24,0,1,0,123.25,64,58.772,58.772,0,0,0,112.656,30.173Zm-3.015-8.71a1.736,1.736,0,0,0,.964.235l4-.2h.17a1.719,1.719,0,0,1,1.566.984,1.745,1.745,0,0,1-.784,2.3l-18.1,9.128.317-3.713a1.749,1.749,0,0,0-2.6-1.674L81.265,36.375a1.751,1.751,0,0,0-.828,1.993L81.445,42l-23.5,11.855a4.241,4.241,0,0,1-4.726-.607l-7.431-6.57a4.214,4.214,0,0,1,3.9-.1l4.089,1.96a1.746,1.746,0,0,0,1.661-.08l44.6-26.908A9.585,9.585,0,0,1,109.641,21.463ZM84.176,38.751l9.833-5.546L92.225,54.064l-3.4,1.437Zm-5.955-8.129-8.039-7.037,2.773-2.444L85.831,26.03ZM43.413,12.207a25.957,25.957,0,0,0-.407,6.9c.028.35.063.7.1,1.06.181,1.826.351,3.551-.38,4.76s-2.354,1.878-4.06,2.573l-.484.2c-4.666,1.935-7.775,4.4-9.5,7.546A22.556,22.556,0,0,0,26.65,41.57c-.218,1.027-.424,2-.7,2.939-.33,1.129-1.627,4.85-4.484,5.336-2.068.349-3.991-1.092-6.217-2.766A28.418,28.418,0,0,0,11.7,44.708,56.034,56.034,0,0,1,43.413,12.207ZM8.25,64a55.543,55.543,0,0,1,2.328-15.918c.846.511,1.692,1.135,2.567,1.793,2.211,1.665,4.683,3.525,7.677,3.525a7.267,7.267,0,0,0,1.231-.1c3.28-.557,5.993-3.475,7.257-7.8.311-1.068.542-2.148.763-3.192a19.636,19.636,0,0,1,1.67-5.365c1.33-2.418,3.874-4.379,7.774-6l.467-.192c2.058-.838,4.39-1.789,5.733-4s1.089-4.71.87-6.918c-.032-.336-.066-.67-.092-.994a22.54,22.54,0,0,1,.844-8.039,55.761,55.761,0,0,1,49.827,8.4l-7.528,4.542L73.211,17.494a1.75,1.75,0,0,0-1.778.323l-5.06,4.46a1.75,1.75,0,0,0,0,2.63l8.7,7.612L54.435,44.974l-3.23-1.548a7.687,7.687,0,0,0-8.077.824l-1.191.909a1.75,1.75,0,0,0-.1,2.7L50.9,55.874a7.735,7.735,0,0,0,8.616,1.108L82.4,45.44,85.98,58.356A1.751,1.751,0,0,0,88.348,59.5l6.211-2.622a1.75,1.75,0,0,0,1.062-1.463l1.489-17.4,12.384-6.245a55.168,55.168,0,0,1,9.655,24.047,47.149,47.149,0,0,0-13.462,2.908c-1.5.591-2.973,1.292-4.4,1.971-3.71,1.762-7.232,3.418-10.895,3.219A23.035,23.035,0,0,1,83.511,62c-1.188-.463-2.415-.941-3.679-1.33-5.237-1.6-9.929-.764-12.551,2.242-2.452,2.809-2.494,6.825-2.521,9.483l-.15,13.941c-.062,6.178-.486,12.888-4.744,14.307-12.5,4.166-16.264,8.883-17.094,14.9A55.651,55.651,0,0,1,32.2,109.748a27.157,27.157,0,0,1-1.317-2.541,1.751,1.751,0,0,0-2.314-.88,1.7,1.7,0,0,0-.443.3A55.64,55.64,0,0,1,8.25,64ZM64,119.75a55.494,55.494,0,0,1-17.873-2.956c.231-3.868,1.674-8.444,14.846-12.834,6.982-2.326,7.08-11.882,7.137-17.591l.15-13.941c.029-2.836.177-5.522,1.659-7.218,1.988-2.28,5.894-2.114,8.887-1.2,1.138.351,2.254.785,3.434,1.246a25.99,25.99,0,0,0,7.951,2.149c4.577.258,8.654-1.678,12.6-3.552,1.439-.684,2.8-1.33,4.186-1.877a44,44,0,0,1,12.579-2.685q.194,2.337.2,4.707A55.813,55.813,0,0,1,64,119.75Z"/><path d="M111.65,49.681A1.751,1.751,0,0,0,115,48.67a53.312,53.312,0,0,0-2.138-5.832,1.75,1.75,0,0,0-3.211,1.394A49.386,49.386,0,0,1,111.65,49.681Z"/><path d="M40.506,62.092a1.744,1.744,0,0,0,1.286-.563A32.614,32.614,0,0,1,44.159,59.2a1.75,1.75,0,1,0-2.318-2.623,36.343,36.343,0,0,0-2.621,2.579,1.75,1.75,0,0,0,1.286,2.936Z"/><path d="M27.092,88.018a1.7,1.7,0,0,0,.345.035,1.749,1.749,0,0,0,1.714-1.407,50.285,50.285,0,0,1,1.9-6.838,1.75,1.75,0,0,0-3.3-1.165,53.685,53.685,0,0,0-2.026,7.316A1.749,1.749,0,0,0,27.092,88.018Z"/><path d="M31.493,74.033a1.75,1.75,0,0,0,2.349-.779A56.484,56.484,0,0,1,37.431,67.1a1.75,1.75,0,1,0-2.9-1.953,59.791,59.791,0,0,0-3.811,6.537A1.748,1.748,0,0,0,31.493,74.033Z"/><path d="M28.843,100.6a33.263,33.263,0,0,1-.519-5.926c0-.343.006-.687.015-1.03a1.75,1.75,0,1,0-3.5-.1c-.011.372-.016.745-.017,1.121a36.831,36.831,0,0,0,.575,6.557,1.751,1.751,0,0,0,1.72,1.437,1.694,1.694,0,0,0,.315-.029A1.75,1.75,0,0,0,28.843,100.6Z"/></g></svg>
