<svg id="Layer_1" data-name="Layer 1" xmlns="http://www.w3.org/2000/svg" xmlns:xlink="http://www.w3.org/1999/xlink" viewBox="0 0 893.33 411.99"><defs><style>.cls-1{fill:none;}.cls-2{fill:#f0f6ff;}.cls-3{fill:url(#linear-gradient);}.cls-4{fill:#edbdab;}.cls-5{fill:url(#linear-gradient-2);}.cls-6{fill:url(#linear-gradient-3);}.cls-7{fill:#1f3262;}.cls-8{fill:#d15b2d;}.cls-9{fill:#bfcbeb;}.cls-10{fill:#8b9ac3;}.cls-11{fill:#2f4b92;}.cls-12{fill:#3e64c3;}.cls-13{clip-path:url(#clip-path);}.cls-14{fill:#1e3b82;}.cls-15{fill:url(#linear-gradient-4);}.cls-16{fill:#9d4422;}.cls-17{opacity:0.2;}</style><linearGradient id="linear-gradient" x1="466.45" y1="411.99" x2="466.45" y2="285.66" gradientUnits="userSpaceOnUse"><stop offset="0" stop-color="#fff"/><stop offset="0.1" stop-color="#f7f8fb"/><stop offset="0.41" stop-color="#e1e6ef"/><stop offset="0.72" stop-color="#d4dbe8"/><stop offset="1" stop-color="#d0d7e6"/></linearGradient><linearGradient id="linear-gradient-2" x1="141.48" y1="49.71" x2="141.48" y2="357.57" gradientUnits="userSpaceOnUse"><stop offset="0" stop-color="#e1e5ef"/><stop offset="0.24" stop-color="#d4dbe8"/><stop offset="0.46" stop-color="#d0d7e6"/><stop offset="1" stop-color="#c6cddb"/></linearGradient><linearGradient id="linear-gradient-3" x1="751.85" y1="49.71" x2="751.85" y2="357.57" xlink:href="#linear-gradient-2"/><clipPath id="clip-path"><rect class="cls-1" x="417.85" y="200.34" width="96.84" height="60.36" rx="5.2"/></clipPath><linearGradient id="linear-gradient-4" x1="462.21" y1="220.69" x2="517.2" y2="220.69" gradientUnits="userSpaceOnUse"><stop offset="0.39" stop-color="#294792"/><stop offset="1" stop-color="#153175"/></linearGradient></defs><path class="cls-2" d="M841,95.67l3.37,1.85a1.53,1.53,0,0,1,0,2.67L841,102a1.49,1.49,0,0,0-.61.61L838.57,106a1.52,1.52,0,0,1-2.67,0l-1.85-3.37a1.53,1.53,0,0,0-.6-.61l-3.38-1.84a1.53,1.53,0,0,1,0-2.67l3.38-1.85a1.57,1.57,0,0,0,.6-.6l1.85-3.37a1.52,1.52,0,0,1,2.67,0l1.84,3.37A1.53,1.53,0,0,0,841,95.67Z"/><path class="cls-2" d="M72.34,223.79l3.38,1.84a1.53,1.53,0,0,1,0,2.68l-3.38,1.84a1.53,1.53,0,0,0-.6.61l-1.85,3.37a1.53,1.53,0,0,1-2.67,0l-1.84-3.37a1.49,1.49,0,0,0-.61-.61l-3.37-1.84a1.53,1.53,0,0,1,0-2.68l3.37-1.84a1.53,1.53,0,0,0,.61-.6l1.84-3.38a1.53,1.53,0,0,1,2.67,0l1.85,3.38A1.57,1.57,0,0,0,72.34,223.79Z"/><path class="cls-2" d="M231.44,157.81l3.22,1.76a1.45,1.45,0,0,1,0,2.55l-3.22,1.76a1.35,1.35,0,0,0-.58.58l-1.76,3.22a1.45,1.45,0,0,1-2.55,0l-1.76-3.22a1.35,1.35,0,0,0-.58-.58L221,162.12a1.45,1.45,0,0,1,0-2.55l3.22-1.76a1.35,1.35,0,0,0,.58-.58l1.76-3.22a1.45,1.45,0,0,1,2.55,0l1.76,3.22A1.35,1.35,0,0,0,231.44,157.81Z"/><path class="cls-2" d="M761.68,267.12l1.8,1a.81.81,0,0,1,0,1.42l-1.8,1a.85.85,0,0,0-.32.33l-1,1.79a.81.81,0,0,1-1.42,0l-1-1.79a.92.92,0,0,0-.32-.33l-1.8-1a.81.81,0,0,1,0-1.42l1.8-1a.82.82,0,0,0,.32-.32l1-1.79a.81.81,0,0,1,1.42,0l1,1.79A.76.76,0,0,0,761.68,267.12Z"/><path class="cls-3" d="M324.42,306.66c-69.27,48.5-24.83,111.91,82.58,101.08s180.27,32.51,224-32.48-53.22-89.84-152.67-89.6S352.77,286.81,324.42,306.66Z"/><polygon class="cls-4" points="576.48 165.3 584.64 170.18 596.89 165.3 592.73 176.32 604.88 185.2 588.82 182.54 584.64 191.69 578.66 185.2 568.82 187.84 577.21 175.17 576.48 165.3"/><polygon class="cls-4" points="395.19 335.72 397.53 332.86 396.36 327.88 400.35 330.11 404.46 325.95 402.52 331.97 405.79 334.1 402.96 336.02 403.41 339.95 399.02 336 395.19 335.72"/><path class="cls-5" d="M162,298.18H14L0,238.35,158.51,49.71H244.1V234.86H283v63.32H244.1v59.39H162Zm0-62.89V147.52L89.08,235.29Z"/><path class="cls-6" d="M772.37,298.18h-148l-14-59.83L768.88,49.71h85.59V234.86h38.86v63.32H854.47v59.39h-82.1Zm0-62.89V147.52l-72.92,87.77Z"/><circle class="cls-7" cx="409.34" cy="45.49" r="11.09"/><circle class="cls-7" cx="525.46" cy="45.49" r="11.09"/><path class="cls-8" d="M374.39,87.91H385a0,0,0,0,1,0,0V116a0,0,0,0,1,0,0H374.39a9.9,9.9,0,0,1-9.9-9.9V97.81A9.9,9.9,0,0,1,374.39,87.91Z"/><path class="cls-8" d="M557.11,87.91h10.64a0,0,0,0,1,0,0V116a0,0,0,0,1,0,0H557.11a9.9,9.9,0,0,1-9.9-9.9V97.81a9.9,9.9,0,0,1,9.9-9.9Z" transform="translate(1114.96 203.94) rotate(-180)"/><path class="cls-9" d="M369.26,269.85c-.61-.17-15.09-4.19-22.18-16.76-4.22-7.48-4.94-16.19-2.16-25.89,8.94-31.07,43.81-35.72,45.29-35.9l1.49,11.9c-1.16.15-28.52,3.94-35.24,27.32-1.87,6.49-1.51,12.1,1.08,16.67,4.57,8.11,14.74,11,14.84,11.07Z"/><path class="cls-10" d="M390.55,203.39l-2.16-11.8c1.17-.21,1.82-.29,1.82-.29l1.49,11.9Z"/><path class="cls-10" d="M357.45,264.17c-.94-.66-1.85-1.34-2.7-2.05l7.65-9.24c.58.48,1.21,1,1.88,1.41Zm-10.27-10.92a28.65,28.65,0,0,1-1.6-3.24l11.07-4.63a17.78,17.78,0,0,0,.94,1.91Zm-3.51-14.81v-.21c0-1.07-.15-2.17-.05-3.28l11.86,1.11c-.07.74,0,1.47,0,2.17Zm13.52-10.18-11.28-4.1c.38-1,.8-2.07,1.25-3.07L358.11,226C357.78,226.74,357.47,227.5,357.19,228.26Zm5.1-9.14-9.41-7.45c.68-.85,1.4-1.7,2.14-2.51l8.85,8.1C363.33,217.86,362.79,218.49,362.29,219.12Zm7.8-7.29L363.18,202c.87-.61,1.77-1.21,2.68-1.78l6.34,10.19C371.48,210.88,370.77,211.35,370.09,211.83Zm9.73-5.26-4.52-11.11c1-.39,1.95-.77,2.94-1.12l4,11.31C381.47,205.93,380.65,206.23,379.82,206.57Z"/><path class="cls-10" d="M369.26,269.85c-.13,0-.81-.23-1.88-.61l4-11.3c.55.2.91.3,1,.33Z"/><path class="cls-9" d="M556.24,188.6l-.82-1.83c.06,0,5.45-2.42,7.67-3.81.55-.34,1.06-2,1.47-3.4.71-2.35,1.44-4.78,3.24-5.59a3.34,3.34,0,0,1,2.88.15,18.32,18.32,0,0,1,3.39,2.1c1.85,1.38,3,2.22,7.55,1.34l.37,2c-5.18,1-6.84,0-9.12-1.71a16.13,16.13,0,0,0-3-1.89c-.75-.35-1.11-.19-1.22-.14-1,.44-1.62,2.61-2.15,4.35-.61,2-1.13,3.78-2.32,4.52C561.81,186.12,556.46,188.5,556.24,188.6Z"/><polygon class="cls-9" points="578.66 206 568.54 206 557.06 199.09 558.09 197.38 569.1 204 578.66 204 578.66 206"/><circle class="cls-7" cx="390.95" cy="197.25" r="16.5"/><circle class="cls-7" cx="545.01" cy="197.25" r="16.5"/><path class="cls-7" d="M380,78.46H395.3a0,0,0,0,1,0,0v47a0,0,0,0,1,0,0H380a5.24,5.24,0,0,1-5.24-5.24V83.71A5.24,5.24,0,0,1,380,78.46Z"/><path class="cls-7" d="M542.18,78.46h15.29a0,0,0,0,1,0,0v47a0,0,0,0,1,0,0H542.18a5.24,5.24,0,0,1-5.24-5.24V83.71a5.24,5.24,0,0,1,5.24-5.24Z" transform="translate(1094.42 203.94) rotate(-180)"/><path class="cls-9" d="M416.54,322c-.09,0-9.05-3.39-12.49-4.37-1.09-.3-2,.23-3.46,1.12-1.83,1.14-4.11,2.56-7.44,1.4-5.67-2-7-9-7-9.31l2-.35c0,.06,1.15,6.18,5.7,7.77,2.43.85,4-.15,5.72-1.21,1.51-.93,3.07-1.91,5.06-1.34,3.52,1,12.28,4.27,12.65,4.41Z"/><path class="cls-9" d="M401.76,334.28l-.05-2c9.42-.26,12.42-9.06,12.45-9.15l1.9.63C416,323.86,412.57,334,401.76,334.28Z"/><circle class="cls-7" cx="420.84" cy="320.27" r="16.5"/><path class="cls-9" d="M545.39,377.5c0-.28-6-28.54-36.22-52.33l7.43-9.43c33.86,26.69,40.31,58.13,40.57,59.45l-11.78,2.29,5.89-1.14Z"/><path class="cls-10" d="M545.39,377.51s-.18-.89-.62-2.42l11.53-3.33c.6,2.06.84,3.3.87,3.43l-11.78,2.3,5.89-1.15ZM541.6,366.4c-.35-.82-.74-1.68-1.15-2.57l10.86-5.09c.47,1,.91,2,1.31,2.9ZM536,355.51c-.47-.79-1-1.6-1.48-2.42l10.14-6.4c.58.91,1.13,1.81,1.66,2.7Zm-6.89-10.18c-.57-.74-1.15-1.48-1.76-2.23l9.34-7.54c.67.83,1.32,1.66,1.95,2.48Zm-8-9.35c-.65-.67-1.31-1.35-2-2l8.44-8.53c.76.75,1.49,1.5,2.21,2.24Zm-9-8.43c-.72-.61-1.46-1.21-2.2-1.81l7.49-9.37c.83.66,1.64,1.33,2.43,2Z"/><circle class="cls-7" cx="509.37" cy="320.27" r="16.5"/><path class="cls-7" d="M447.61,269.34h37.33a13.23,13.23,0,0,1,13.23,13.23v5.06a0,0,0,0,1,0,0H434.38a0,0,0,0,1,0,0v-5.06A13.23,13.23,0,0,1,447.61,269.34Z" transform="translate(932.55 556.97) rotate(-180)"/><rect class="cls-11" x="453.79" y="287.63" width="27.01" height="16.21"/><path class="cls-12" d="M494.55,341.27H438a11.63,11.63,0,0,1-11.28-8.78l-5.63-22.28a11.63,11.63,0,0,1,11.28-14.48h67.8a11.63,11.63,0,0,1,11.28,14.48l-5.62,22.28A11.64,11.64,0,0,1,494.55,341.27Z"/><rect class="cls-11" x="453.79" y="153.19" width="27.01" height="16.21"/><path class="cls-7" d="M434.38,169.4h63.79a0,0,0,0,1,0,0v5.06a13.23,13.23,0,0,1-13.23,13.23H447.61a13.23,13.23,0,0,1-13.23-13.23V169.4A0,0,0,0,1,434.38,169.4Z" transform="translate(932.55 357.09) rotate(180)"/><rect class="cls-12" x="393.02" y="175.03" width="146.51" height="103.15" rx="21.65"/><path class="cls-7" d="M420.38,141h91.79a0,0,0,0,1,0,0v2.42a15.87,15.87,0,0,1-15.87,15.87H436.25a15.87,15.87,0,0,1-15.87-15.87V141A0,0,0,0,1,420.38,141Z"/><rect class="cls-12" x="393.02" y="46.06" width="146.51" height="103.15" rx="21.65"/><rect class="cls-7" x="417.85" y="200.34" width="96.84" height="60.36" rx="5.2"/><g class="cls-13"><path class="cls-14" d="M484.33,264.14l-3-.06.2-9.34a6.39,6.39,0,0,1,6.35-6.23h29.74v3H487.88a3.37,3.37,0,0,0-3.35,3.29Z"/><path class="cls-14" d="M489.54,269.35l-3-.06.25-11.86a3.8,3.8,0,0,1,3.78-3.7h32.26v3H490.57a.78.78,0,0,0-.78.76Z"/><path class="cls-15" d="M462.21,197h55a0,0,0,0,1,0,0v31a16.47,16.47,0,0,1-16.47,16.47H478.68A16.47,16.47,0,0,1,462.21,228V197A0,0,0,0,1,462.21,197Z"/><path class="cls-8" d="M501.5,224.37a14,14,0,0,0-.37-3.19l3.14-2.79-3.37-5.84-4,1.33a13.73,13.73,0,0,0-5.53-3l-.84-3.88H483.8l-.85,3.88a14.05,14.05,0,0,0-5.53,3.1l-4-1.37-3.37,5.81,3.14,2.77a13.94,13.94,0,0,0,0,6.38l-3.14,2.79,3.37,5.83,4-1.32a15.22,15.22,0,0,0,5.53,3.62l.85,4.51h6.74l.84-4.51a14.62,14.62,0,0,0,5.53-3.42l4,1.23,3.37-5.89-3.14-2.81A14.34,14.34,0,0,0,501.5,224.37Zm-14.33,8.15a8.15,8.15,0,1,1,8.14-8.15A8.15,8.15,0,0,1,487.17,232.52Z"/><path class="cls-12" d="M480.4,253.56a10.34,10.34,0,0,0,1-1.94l2.84-.36.35-4.59-2.75-.79a9.57,9.57,0,0,0-1.93-3.86l1.05-2.55-3.79-2.61-2,1.9a9.77,9.77,0,0,0-4.32-.37l-1.72-2.3-4.15,2,.7,2.77a9.6,9.6,0,0,0-1.44,1.66,9.79,9.79,0,0,0-1,1.94l-2.84.35-.36,4.59,2.76.79a9.81,9.81,0,0,0,1.86,4l-1.12,2.65,3.79,2.6,2.07-2a9.93,9.93,0,0,0,4.36.32l1.73,2.28,4.15-2-.68-2.78A9.58,9.58,0,0,0,480.4,253.56Zm-11.21-.95a5.56,5.56,0,1,1,7.73-1.44A5.56,5.56,0,0,1,469.19,252.61Z"/><path class="cls-12" d="M434.38,196.1h32.4a0,0,0,0,1,0,0v16.74a6.5,6.5,0,0,1-6.5,6.5h-19.4a6.5,6.5,0,0,1-6.5-6.5V196.1A0,0,0,0,1,434.38,196.1Z"/><circle class="cls-8" cx="441.69" cy="213.24" r="2.08"/><path class="cls-9" d="M435.53,233h-2v-3.45a5,5,0,0,1,5-5,3,3,0,0,0,3-3v-2.3h2v2.3a5,5,0,0,1-5,5,3,3,0,0,0-3,3Z"/><rect class="cls-9" x="444.67" y="220" width="2" height="14"/><circle class="cls-9" cx="449.74" cy="213.24" r="2.08"/><rect class="cls-8" x="424.89" y="232.52" width="32.69" height="36.32" rx="6.3"/><path class="cls-16" d="M424.89,239.81h14a2.31,2.31,0,0,1,2.31,2.31v0a2.31,2.31,0,0,1-2.31,2.31h-14a0,0,0,0,1,0,0v-4.62A0,0,0,0,1,424.89,239.81Z"/><path class="cls-16" d="M424.89,250.43h14a2.31,2.31,0,0,1,2.31,2.31v0a2.31,2.31,0,0,1-2.31,2.31h-14a0,0,0,0,1,0,0v-4.62a0,0,0,0,1,0,0Z"/><circle class="cls-7" cx="487.17" cy="224.37" r="5.13"/><rect class="cls-17" x="415.67" y="196.1" width="109.26" height="8.5"/></g><circle class="cls-7" cx="433.51" cy="99.53" r="16.5"/><circle class="cls-8" cx="433.51" cy="99.53" r="10.85"/><rect class="cls-7" x="448.84" y="125.48" width="35.92" height="11.87"/><rect class="cls-9" x="482.4" y="95.7" width="32.98" height="8.48" rx="4.24" transform="translate(216.79 -323.5) rotate(45)"/><rect class="cls-9" x="482.4" y="95.7" width="32.98" height="8.48" rx="4.24" transform="translate(922.32 -182.17) rotate(135)"/><path class="cls-14" d="M407.94,39.16l-2.89-.79c.08-.31,1.95-7.51-3.28-9a22.46,22.46,0,0,0-7-.47c-3.7.14-7.89.31-9.22-4.35-1.1-3.85,2.66-6,5.69-7.78,3.82-2.22,5-3.31,4.32-5-1.2-2.81-3.14-3.34-5.2-3.9-1.86-.5-4-1.07-4.89-3.43l2.79-1.1c.35.88,1.06,1.15,2.88,1.64,2.28.62,5.41,1.46,7.18,5.62,1.89,4.45-2.42,7-5.58,8.78-3,1.72-4.73,2.88-4.3,4.37.62,2.19,2.11,2.33,6.21,2.17a25,25,0,0,1,7.89.58C409.06,28.32,408.92,35.57,407.94,39.16Z"/><rect class="cls-11" x="511.81" y="207.46" width="6.65" height="15.24" rx="3.33"/><rect class="cls-11" x="511.81" y="239.81" width="6.65" height="15.24" rx="3.33"/><rect class="cls-8" x="368.14" y="245.27" width="11.94" height="57.47" transform="translate(141.12 -126.94) rotate(23.62)"/><path class="cls-8" d="M387.69,218.19s-1.57-.8-3,1.09-9.79,9.24-4.7,16.49,18.21,8.2,23.43,3.06c4.62-4.55,3.64-9.4,1-15.36-1.33-3-2-3.05-3.46-3.2l-.89,7.07a6.1,6.1,0,0,1-6.74,5.31l-1.16-.13a6.1,6.1,0,0,1-5.37-6.8Z"/><path class="cls-8" d="M379.36,234.73a13.36,13.36,0,0,1,.35,11.56l11,4.79s3.25-7.8,11.08-11Z"/><path class="cls-8" d="M363.5,298.37a9.69,9.69,0,1,0,5,12.76A9.69,9.69,0,0,0,363.5,298.37Zm-5.86,13.39a4.92,4.92,0,1,1,6.49-2.54A4.92,4.92,0,0,1,357.64,311.76Z"/><path class="cls-9" d="M360.45,373.73l-6.66-10c1.12-.75,28-18.32,70.76-13.12l-1.45,11.92C385,357.9,360.69,373.57,360.45,373.73Z"/><path class="cls-10" d="M360.45,373.73l-6.66-10c.11-.08,1.16-.77,3-1.8l5.75,10.53C361.2,373.24,360.46,373.73,360.45,373.73ZM371,368.6l-4.39-11.17c.94-.37,1.93-.74,3-1.12l4.06,11.29C372.71,367.94,371.83,368.27,371,368.6Zm11.65-3.73-2.93-11.63c1-.26,2-.5,3.08-.73l2.6,11.71C384.45,364.43,383.53,364.65,382.64,364.87Zm12.07-2.28-1.54-11.91c1-.13,2.07-.25,3.14-.36l1.22,11.94C396.58,362.35,395.64,362.47,394.71,362.59Zm27.48-.15c-1-.11-1.91-.21-2.84-.29l1.07-11.95c1,.09,2.08.2,3.13.31ZM407,361.69l-.22-12H410l-.1,12H407Z"/><circle class="cls-7" cx="356.61" cy="370.46" r="11.46"/><circle class="cls-7" cx="550.42" cy="377.92" r="11.46"/><path class="cls-9" d="M468.3,360H456.75L451,369.5l5.78,9.5H468.3l5.78-9.5Zm-5.85,12.22a4,4,0,1,1,4-4A4,4,0,0,1,462.45,372.22Z"/><rect class="cls-11" x="551.28" y="323.83" width="17.74" height="9.05" rx="1.95"/><path class="cls-12" d="M568,336h24.74a0,0,0,0,1,0,0v65.66A18.65,18.65,0,0,1,574,420.28H568a0,0,0,0,1,0,0V336A0,0,0,0,1,568,336Z" transform="translate(485.45 1064.24) rotate(-115.21)"/><path class="cls-12" d="M323,307.24h6.09a18.65,18.65,0,0,1,18.65,18.65v65.66a0,0,0,0,1,0,0H323a0,0,0,0,1,0,0v-84.3A0,0,0,0,1,323,307.24Z" transform="translate(-97.74 132.69) rotate(-19.59)"/><circle class="cls-12" cx="377.1" cy="267.44" r="15.92"/><circle class="cls-8" cx="386.35" cy="4.11" r="4.11"/><circle class="cls-12" cx="591.56" cy="345.92" r="4.56"/></svg>