<svg width="47" height="47" viewBox="0 0 47 47" fill="none" xmlns="http://www.w3.org/2000/svg">
<g clip-path="url(#clip0_481_97)">
<path d="M1.0452 23.6383C1.0452 11.2244 11.1087 1.16089 23.5226 1.16089C35.9365 1.16089 46 11.2244 46 23.6383C46 36.0522 35.9365 46.1157 23.5226 46.1157C11.1087 46.1157 1.0452 36.0522 1.0452 23.6383Z" stroke="#AD1AE7"/>
</g>
<path fill-rule="evenodd" clip-rule="evenodd" d="M37.5256 12.853C37.5256 13.3243 37.1437 13.706 36.6726 13.706H32.1233C31.6522 13.706 31.2703 13.3243 31.2703 12.853C31.2703 12.3819 31.6522 12 32.1233 12H36.6726C37.1437 12 37.5256 12.3819 37.5256 12.853Z" fill="#AD1AE7"/>
<path fill-rule="evenodd" clip-rule="evenodd" d="M37.5256 16.2651C37.5256 16.7364 37.1437 17.1181 36.6726 17.1181H32.1233C31.6522 17.1181 31.2703 16.7364 31.2703 16.2651C31.2703 15.7941 31.6522 15.4121 32.1233 15.4121H36.6726C37.1437 15.4121 37.5256 15.7941 37.5256 16.2651Z" fill="#AD1AE7"/>
<path fill-rule="evenodd" clip-rule="evenodd" d="M35.2512 19.6767C35.2512 20.148 34.8693 20.5298 34.3982 20.5298H32.1235C31.6524 20.5298 31.2704 20.148 31.2704 19.6767C31.2704 19.2057 31.6524 18.8237 32.1235 18.8237H34.3982C34.8693 18.8237 35.2512 19.2057 35.2512 19.6767Z" fill="#AD1AE7"/>
<path fill-rule="evenodd" clip-rule="evenodd" d="M15.8105 17.934C15.8105 14.2471 18.7995 11.2578 22.4866 11.2578C26.1735 11.2578 29.1622 14.2469 29.1622 17.934C29.1622 20.1593 28.0733 22.1305 26.399 23.3434C25.2061 22.8027 23.8815 22.5016 22.4865 22.5016C21.0913 22.5016 19.7667 22.8027 18.5737 23.3434C16.8997 22.1305 15.8106 20.1593 15.8106 17.934H15.8105Z" fill="#AD1AE7"/>
<path fill-rule="evenodd" clip-rule="evenodd" d="M22.4866 23.3435C17.2474 23.3435 13 27.5909 13 32.8301V33.2245C13 34.0966 13.6111 34.8496 14.4644 35.0293L16.9259 35.5477C20.5928 36.3196 24.3803 36.3196 28.0472 35.5477L30.5088 35.0293C31.3624 34.8496 31.9734 34.0967 31.9734 33.2245V32.8301C31.9734 27.5909 27.726 23.3435 22.4868 23.3435H22.4866Z" fill="#AD1AE7"/>
<defs>
<clipPath id="clip0_481_97">
<rect width="47" height="47" fill="white"/>
</clipPath>
</defs>
</svg>
