<svg width="47" height="47" viewBox="0 0 47 47" fill="none" xmlns="http://www.w3.org/2000/svg">
<g clip-path="url(#clip0_480_75)">
<path d="M1.0452 23.6383C1.0452 11.2244 11.1087 1.16089 23.5226 1.16089C35.9365 1.16089 46 11.2244 46 23.6383C46 36.0522 35.9365 46.1157 23.5226 46.1157C11.1087 46.1157 1.0452 36.0522 1.0452 23.6383Z" stroke="#0072C6"/>
<path d="M23 12C24.4587 12 25.8576 12.5795 26.8891 13.6109C27.9205 14.6424 28.5 16.0413 28.5 17.5C28.5 18.9587 27.9205 20.3576 26.8891 21.3891C25.8576 22.4205 24.4587 23 23 23C21.5413 23 20.1424 22.4205 19.1109 21.3891C18.0795 20.3576 17.5 18.9587 17.5 17.5C17.5 16.0413 18.0795 14.6424 19.1109 13.6109C20.1424 12.5795 21.5413 12 23 12ZM23 25.75C29.0775 25.75 34 28.2112 34 31.25V34H12V31.25C12 28.2112 16.9225 25.75 23 25.75Z" fill="#0072C6"/>
</g>
<defs>
<clipPath id="clip0_480_75">
<rect width="47" height="47" fill="white"/>
</clipPath>
</defs>
</svg>
