<svg width="44" height="44" viewBox="0 0 44 44" fill="none" xmlns="http://www.w3.org/2000/svg">
<path d="M21.9999 23.4667H20.5332V20.5333H21.9999C22.3889 20.5333 22.7619 20.6878 23.037 20.9629C23.312 21.238 23.4665 21.611 23.4665 22C23.4665 22.389 23.312 22.762 23.037 23.0371C22.7619 23.3121 22.3889 23.4667 21.9999 23.4667Z" fill="#0180DE"/>
<path fill-rule="evenodd" clip-rule="evenodd" d="M2.93359 4.4C2.93359 3.23305 3.39716 2.11389 4.22232 1.28873C5.04748 0.46357 6.16664 0 7.33359 0L31.4075 0L41.0669 9.65947V39.6C41.0669 40.767 40.6034 41.8861 39.7782 42.7113C38.953 43.5364 37.8339 44 36.6669 44H7.33359C6.16664 44 5.04748 43.5364 4.22232 42.7113C3.39716 41.8861 2.93359 40.767 2.93359 39.6V4.4ZM22.0003 17.6H17.6003V32.2667H20.5336V26.4H22.0003C23.1672 26.4 24.2864 25.9364 25.1115 25.1113C25.9367 24.2861 26.4003 23.167 26.4003 22C26.4003 20.833 25.9367 19.7139 25.1115 18.8887C24.2864 18.0636 23.1672 17.6 22.0003 17.6ZM8.37199 18.0283C8.16687 17.8226 7.9053 17.6825 7.62045 17.6257C7.33559 17.5689 7.04029 17.5979 6.77197 17.7092C6.50365 17.8204 6.27439 18.0088 6.11327 18.2505C5.95214 18.4921 5.86641 18.7762 5.86693 19.0667V32.2667H8.80026V22.6072L10.2669 24.0739L11.7336 22.6072V32.2667H14.6669V19.0667C14.6674 18.7762 14.5817 18.4921 14.4206 18.2505C14.2595 18.0088 14.0302 17.8204 13.7619 17.7092C13.4936 17.5979 13.1983 17.5689 12.9134 17.6257C12.6286 17.6825 12.367 17.8226 12.1619 18.0283L10.2669 19.9261L8.37199 18.0283ZM33.7336 20.5333H29.3336V17.6H36.6669C36.9393 17.6 37.2063 17.6758 37.438 17.819C37.6697 17.9622 37.8569 18.1671 37.9787 18.4108C38.1006 18.6544 38.1521 18.9271 38.1277 19.1984C38.1032 19.4697 38.0037 19.7288 37.8403 19.9467L35.0507 23.6661C36.0557 23.9795 36.9151 24.6429 37.4728 25.5358C38.0305 26.4288 38.2496 27.4921 38.0902 28.5327C37.9308 29.5734 37.4036 30.5224 36.6043 31.2075C35.8049 31.8926 34.7864 32.2684 33.7336 32.2667H29.3336V29.3333H33.7336C34.1226 29.3333 34.4956 29.1788 34.7707 28.9038C35.0457 28.6287 35.2003 28.2557 35.2003 27.8667C35.2003 27.4777 35.0457 27.1046 34.7707 26.8296C34.4956 26.5545 34.1226 26.4 33.7336 26.4H32.2669C31.9945 26.4 31.7275 26.3242 31.4958 26.181C31.2642 26.0378 31.0769 25.8329 30.9551 25.5892C30.8333 25.3456 30.7817 25.0729 30.8062 24.8016C30.8306 24.5303 30.9302 24.2712 31.0936 24.0533L33.7336 20.5333Z" fill="#0180DE"/>
</svg>
