<svg width="34" height="34" viewBox="0 0 34 34" fill="none" xmlns="http://www.w3.org/2000/svg">
<path d="M17 1.0625C8.19798 1.0625 1.0625 8.19798 1.0625 17C1.0625 25.802 8.19798 32.9375 17 32.9375C25.802 32.9375 32.9375 25.802 32.9375 17C32.9375 8.19798 25.802 1.0625 17 1.0625ZM26.7669 26.7669C24.3451 29.1815 21.1111 30.6079 17.695 30.7683C14.2789 30.9286 10.9255 29.8114 8.28812 27.6344C5.65076 25.4573 3.91841 22.3763 3.42861 18.9917C2.93881 15.6071 3.72666 12.1614 5.63863 9.32594C7.55061 6.49051 10.4497 4.46847 13.7711 3.65382C17.0925 2.83918 20.5983 3.29028 23.6052 4.91924C26.6122 6.5482 28.905 9.23832 30.0369 12.4654C31.1687 15.6925 31.0586 19.2255 29.7279 22.3758C29.0344 24.0173 28.0288 25.5086 26.7669 26.7669Z" fill="white"/>
<path d="M9.45087 16.0056L10.9535 17.5082L15.9375 12.5243V24.9687H18.0625V12.5243L23.0465 17.5082L24.5491 16.0056L17 8.45654L9.45087 16.0056Z" fill="white"/>
</svg>
