<svg width="47" height="47" viewBox="0 0 47 47" fill="none" xmlns="http://www.w3.org/2000/svg">
<mask id="mask0_220_17" style="mask-type:luminance" maskUnits="userSpaceOnUse" x="0" y="0" width="47" height="47">
<path d="M47 0H0V47H47V0Z" fill="white"/>
</mask>
<g mask="url(#mask0_220_17)">
<path d="M1.04517 23.6383C1.04517 11.2244 11.1087 1.16089 23.5226 1.16089C35.9365 1.16089 46 11.2244 46 23.6383C46 36.0522 35.9365 46.1157 23.5226 46.1157C11.1087 46.1157 1.04517 36.0522 1.04517 23.6383Z" stroke="#FF9900"/>
</g>
<path d="M14.813 11.406L13.405 12.812L15.5 14.906L16.906 13.5L14.812 11.406H14.813ZM33.188 11.406L31.093 13.5L32.5 14.906L34.594 12.813L33.188 11.406ZM24 12.03C23.67 12.034 23.336 12.053 23 12.094C22.99 12.094 22.98 12.092 22.97 12.094C18.914 12.559 15.686 15.836 15.125 19.874C14.677 23.124 16.017 26.071 18.25 27.969C19.1634 28.7485 19.7812 29.8183 20 30.999V36.999H22.28C22.628 37.596 23.263 37.999 24 37.999C24.737 37.999 25.372 37.596 25.72 36.999H28V32.999H28.094V31.811C28.094 30.345 28.856 28.867 30.094 27.718C31.75 26.06 33 23.705 33 21C33 16.06 28.934 11.984 24 12.03ZM24 14.03C27.865 13.976 31 17.14 31 21C31 23.094 30.03 24.938 28.687 26.28L28.719 26.312C27.3844 27.5427 26.5214 29.2008 26.279 31H21.905C21.685 29.286 20.95 27.627 19.561 26.437C17.794 24.937 16.741 22.677 17.093 20.125C17.53 16.975 20.086 14.442 23.218 14.095C23.4766 14.0589 23.737 14.0376 23.998 14.031L24 14.03ZM10 21V23H13V21H10ZM35 21V23H38V21H35ZM15.5 29.094L13.406 31.187L14.813 32.594L16.905 30.5L15.5 29.094ZM32.5 29.094L31.094 30.5L33.187 32.594L34.594 31.187L32.5 29.094ZM22 33H26V35H22V33Z" fill="#FF9900"/>
</svg>
