<svg width="214" height="70" viewBox="0 0 214 70" fill="none" xmlns="http://www.w3.org/2000/svg">
<path d="M44.4649 58.1008V25.6201H50.7781V58.1008H44.4649ZM65.9809 58.2381C64.395 58.2381 62.931 57.9331 61.5891 57.3231C60.2777 56.6827 59.134 55.7982 58.1581 54.6698C57.2126 53.5413 56.4807 52.2452 55.9622 50.7812C55.4437 49.3173 55.1845 47.7619 55.1845 46.115C55.1845 44.3766 55.459 42.7602 56.0079 41.2657C56.5569 39.7713 57.3194 38.4599 58.2953 37.3315C59.3017 36.1725 60.4759 35.2881 61.8179 34.6781C63.1903 34.0376 64.7 33.7174 66.3469 33.7174C68.2073 33.7174 69.8389 34.1444 71.2418 34.9983C72.6448 35.8218 73.8037 36.935 74.7187 38.3379V34.1291H80.0711V56.9571C80.0711 59.336 79.4916 61.3642 78.3327 63.0416C77.2043 64.7495 75.6336 66.0456 73.6207 66.9301C71.6078 67.845 69.3205 68.3025 66.7586 68.3025C64.1662 68.3025 61.9704 67.8603 60.171 66.9758C58.3715 66.1219 56.8314 64.902 55.5505 63.316L58.89 60.068C59.805 61.1964 60.9487 62.0809 62.3211 62.7213C63.724 63.3618 65.2032 63.682 66.7586 63.682C68.07 63.682 69.2595 63.438 70.3269 62.9501C71.4248 62.4926 72.294 61.7606 72.9345 60.7542C73.6055 59.7782 73.9409 58.5126 73.9409 56.9571V53.9378C73.148 55.3102 72.0196 56.3777 70.5556 57.1401C69.1222 57.8721 67.5973 58.2381 65.9809 58.2381ZM68.0395 53.3431C68.7105 53.3431 69.3509 53.2363 69.9609 53.0229C70.5709 52.8094 71.1351 52.5196 71.6536 52.1537C72.172 51.7877 72.6295 51.3607 73.026 50.8727C73.4225 50.3543 73.7275 49.8358 73.9409 49.3173V43.5989C73.575 42.6534 73.0565 41.83 72.3855 41.1285C71.7451 40.427 71.0131 39.8933 70.1897 39.5273C69.3967 39.1309 68.558 38.9326 67.6735 38.9326C66.7281 38.9326 65.8741 39.1309 65.1117 39.5273C64.3492 39.9238 63.6935 40.488 63.1445 41.22C62.5956 41.9215 62.1686 42.7144 61.8636 43.5989C61.5891 44.4528 61.4519 45.3525 61.4519 46.298C61.4519 47.2739 61.6196 48.1889 61.9551 49.0428C62.2906 49.8968 62.7481 50.644 63.3275 51.2845C63.9375 51.9249 64.639 52.4281 65.4319 52.7941C66.2554 53.1601 67.1246 53.3431 68.0395 53.3431ZM96.7136 58.5583C94.7922 58.5583 93.0538 58.2381 91.4983 57.5976C89.9429 56.9266 88.6162 56.0269 87.5183 54.8985C86.4204 53.7396 85.5664 52.4281 84.9564 50.9642C84.377 49.4698 84.0872 47.8991 84.0872 46.2522C84.0872 43.9649 84.5905 41.8757 85.5969 39.9848C86.6339 38.0939 88.0978 36.5843 89.9887 35.4558C91.9101 34.2969 94.1669 33.7174 96.7593 33.7174C99.3822 33.7174 101.624 34.2969 103.484 35.4558C105.345 36.5843 106.763 38.0939 107.739 39.9848C108.745 41.8452 109.248 43.8581 109.248 46.0235C109.248 46.3895 109.233 46.7707 109.203 47.1672C109.172 47.5332 109.142 47.8381 109.111 48.0821H90.5834C90.7054 49.3021 91.0561 50.3695 91.6356 51.2845C92.2455 52.1994 93.008 52.9009 93.923 53.3888C94.8684 53.8463 95.8748 54.075 96.9423 54.075C98.1622 54.075 99.3059 53.7853 100.373 53.2058C101.471 52.5959 102.219 51.8029 102.615 50.827L107.876 52.2909C107.296 53.5108 106.458 54.5935 105.36 55.539C104.292 56.4844 103.027 57.2316 101.563 57.7806C100.099 58.2991 98.4825 58.5583 96.7136 58.5583ZM90.4461 44.1936H102.981C102.859 42.9737 102.508 41.9215 101.929 41.037C101.38 40.1221 100.648 39.4206 99.7329 38.9326C98.8179 38.4142 97.7962 38.1549 96.6678 38.1549C95.5699 38.1549 94.5634 38.4142 93.6485 38.9326C92.764 39.4206 92.0321 40.1221 91.4526 41.037C90.9036 41.9215 90.5681 42.9737 90.4461 44.1936ZM135.262 58.1008H129.132V44.6511C129.132 42.7297 128.796 41.3267 128.125 40.4423C127.454 39.5578 126.524 39.1156 125.335 39.1156C124.511 39.1156 123.673 39.3291 122.819 39.7561C121.995 40.1831 121.248 40.7778 120.577 41.5402C119.906 42.2722 119.418 43.1261 119.113 44.1021V58.1008H112.983V34.1291H118.518V38.5666C119.128 37.5297 119.906 36.6605 120.851 35.959C121.797 35.2271 122.88 34.6781 124.1 34.3121C125.35 33.9157 126.661 33.7174 128.034 33.7174C129.528 33.7174 130.748 33.9919 131.694 34.5409C132.67 35.0593 133.401 35.7761 133.889 36.691C134.408 37.5755 134.759 38.5819 134.942 39.7103C135.155 40.8388 135.262 41.9825 135.262 43.1414V58.1008ZM151.755 58.5583C149.803 58.5583 148.049 58.2381 146.494 57.5976C144.938 56.9266 143.612 56.0117 142.514 54.8528C141.416 53.6633 140.562 52.3214 139.952 50.827C139.372 49.3326 139.083 47.7619 139.083 46.115C139.083 43.8581 139.586 41.7995 140.592 39.9391C141.629 38.0482 143.093 36.5385 144.984 35.4101C146.875 34.2816 149.116 33.7174 151.709 33.7174C154.301 33.7174 156.528 34.2816 158.388 35.4101C160.248 36.5385 161.636 38.0177 162.551 39.8476L156.558 41.6775C156.04 40.793 155.353 40.1221 154.499 39.6646C153.645 39.1766 152.7 38.9326 151.663 38.9326C150.504 38.9326 149.437 39.2376 148.461 39.8476C147.515 40.427 146.768 41.2658 146.219 42.3637C145.67 43.4311 145.396 44.6816 145.396 46.115C145.396 47.5179 145.67 48.7683 146.219 49.8663C146.799 50.9337 147.561 51.7877 148.507 52.4281C149.452 53.0381 150.504 53.3431 151.663 53.3431C152.395 53.3431 153.081 53.2211 153.722 52.9771C154.393 52.7331 154.987 52.3976 155.506 51.9707C156.024 51.5437 156.406 51.0557 156.65 50.5067L162.642 52.3366C162.094 53.5261 161.285 54.5935 160.218 55.539C159.181 56.4844 157.946 57.2316 156.512 57.7806C155.109 58.2991 153.523 58.5583 151.755 58.5583ZM166.471 62.7671C167.02 62.8891 167.523 62.9958 167.981 63.0873C168.469 63.1788 168.88 63.2245 169.216 63.2245C169.795 63.2245 170.268 63.0721 170.634 62.7671C171.03 62.4926 171.412 61.9741 171.778 61.2117C172.144 60.4797 172.525 59.4428 172.921 58.1008L163.452 34.1291H169.811L176.261 51.8334L181.934 34.1291H187.789L177.725 62.8586C177.359 63.926 176.795 64.8867 176.032 65.7407C175.3 66.6251 174.37 67.3113 173.242 67.7993C172.144 68.3178 170.908 68.577 169.536 68.577C169.048 68.577 168.56 68.5313 168.072 68.4398C167.584 68.3788 167.05 68.2568 166.471 68.0738V62.7671Z" fill="white"/>
<path d="M4.71116 60.1515C6.18954 60.0146 7.61397 59.4461 8.85183 58.4988L8.85324 58.498C10.8762 56.949 11.5847 55.1942 12.4861 52.962C12.6266 52.6139 12.7718 52.2541 12.9275 51.8818L19.7703 35.5151C19.7852 35.4869 19.8018 35.4597 19.8197 35.4341L21.0409 32.5346L26.673 45.9037C22.485 43.8721 19.6981 45.5581 16.7729 47.3859L14.8819 51.9102C14.6872 52.376 14.5011 52.8486 14.315 53.3215C13.6458 55.0207 12.9755 56.7234 11.897 58.1297C13.0439 57.9114 14.0946 57.5439 15.075 57.1017C16.3487 56.5274 17.5055 55.8275 18.6031 55.1635C22.8219 52.6112 26.1627 50.59 31.8837 58.2773H35.6789L27.6527 39.2221C27.252 39.2155 26.8649 39.0525 26.5539 38.7594C26.2431 38.4662 26.0263 38.06 25.9388 37.6063C25.8514 37.1528 25.8981 36.6782 26.0718 36.2593C26.2454 35.8404 26.5357 35.5016 26.8957 35.2975C27.2558 35.0935 27.6647 35.0362 28.0562 35.135C28.4477 35.2338 28.7992 35.4827 29.0538 35.8417C29.3084 36.2006 29.4512 36.6487 29.4594 37.1133C29.4674 37.578 29.3403 38.0323 29.0984 38.403L37.4683 58.2781H41.0793L41.0785 58.2762L28.0339 27.3093C27.2978 25.8928 26.2586 24.7212 25.0173 23.9079C23.7895 23.1036 22.4054 22.6768 20.996 22.6674C20.9803 22.6674 20.9644 22.6672 20.9487 22.6672C20.933 22.6672 20.9171 22.6674 20.9013 22.6674C19.4922 22.6768 18.1079 23.1036 16.8802 23.9079C15.6389 24.7212 14.5997 25.8928 13.8635 27.3093L0.396973 59.2812C1.74872 59.9888 3.23293 60.2882 4.71116 60.1515Z" fill="white"/>
<rect x="79.9399" y="0.679932" width="134.037" height="25.6457" rx="12.8228" fill="#005695"/>
<path d="M94.726 10.6688C94.3935 10.6688 94.0984 10.7342 93.8406 10.865C93.5866 10.992 93.3718 11.1769 93.1962 11.4197C93.0243 11.6625 92.8936 11.9558 92.8039 12.2995C92.7143 12.6432 92.6695 13.0298 92.6695 13.4594C92.6695 14.0384 92.7404 14.5334 92.8824 14.9444C93.0281 15.3515 93.2522 15.6635 93.5548 15.8801C93.8574 16.0931 94.2478 16.1996 94.726 16.1996C95.0584 16.1996 95.3909 16.1622 95.7234 16.0875C96.0596 16.0128 96.4238 15.9063 96.8161 15.7681V17.225C96.4537 17.3744 96.097 17.4809 95.7458 17.5444C95.3947 17.6117 95.0005 17.6453 94.5635 17.6453C93.7192 17.6453 93.0243 17.4716 92.4789 17.1241C91.9373 16.773 91.5357 16.2836 91.2742 15.656C91.0127 15.0247 90.8819 14.2887 90.8819 13.4482C90.8819 12.8281 90.966 12.2602 91.1341 11.7447C91.3022 11.2292 91.5487 10.7828 91.8737 10.4055C92.1988 10.0282 92.6003 9.73677 93.0785 9.5313C93.5567 9.32584 94.1058 9.22311 94.726 9.22311C95.1332 9.22311 95.5403 9.27541 95.9475 9.38001C96.3585 9.48087 96.7507 9.62096 97.1243 9.80027L96.5639 11.2124C96.2576 11.0667 95.9494 10.9397 95.6393 10.8313C95.3293 10.723 95.0248 10.6688 94.726 10.6688ZM105.277 17.5332H103.546V13.9973H100.302V17.5332H98.5644V9.34078H100.302V12.5516H103.546V9.34078H105.277V17.5332ZM112.366 17.5332L111.772 15.5832H108.785L108.191 17.5332H106.32L109.211 9.30716H111.335L114.238 17.5332H112.366ZM111.357 14.1262L110.763 12.221C110.726 12.094 110.676 11.9315 110.612 11.7335C110.552 11.5318 110.491 11.3282 110.427 11.1227C110.367 10.9135 110.319 10.7323 110.281 10.5792C110.244 10.7323 110.192 10.9229 110.125 11.1507C110.061 11.3749 109.999 11.5878 109.94 11.7895C109.88 11.9913 109.837 12.1351 109.811 12.221L109.222 14.1262H111.357ZM118.435 17.5332H116.698V10.7865H114.473V9.34078H120.659V10.7865H118.435V17.5332ZM128.011 12.9327H131.261V17.1802C130.832 17.3221 130.385 17.4361 129.922 17.522C129.459 17.6042 128.934 17.6453 128.347 17.6453C127.533 17.6453 126.842 17.4846 126.274 17.1634C125.706 16.8421 125.275 16.3677 124.98 15.7401C124.685 15.1125 124.537 14.341 124.537 13.4258C124.537 12.5666 124.701 11.8232 125.03 11.1956C125.363 10.568 125.846 10.0823 126.481 9.73864C127.12 9.39495 127.899 9.22311 128.818 9.22311C129.251 9.22311 129.679 9.2698 130.101 9.3632C130.523 9.45659 130.906 9.578 131.25 9.72743L130.673 11.1171C130.423 10.9901 130.137 10.8836 129.816 10.7977C129.494 10.7118 129.158 10.6688 128.807 10.6688C128.303 10.6688 127.864 10.7846 127.49 11.0162C127.12 11.2479 126.833 11.5729 126.627 11.9913C126.425 12.4059 126.325 12.8953 126.325 13.4594C126.325 13.9936 126.397 14.468 126.543 14.8827C126.689 15.2936 126.918 15.6168 127.232 15.8521C127.546 16.0837 127.955 16.1996 128.459 16.1996C128.706 16.1996 128.913 16.1883 129.081 16.1659C129.253 16.1398 129.414 16.1136 129.563 16.0875V14.3784H128.011V12.9327ZM135.834 9.34078C136.891 9.34078 137.662 9.56866 138.148 10.0244C138.634 10.4764 138.877 11.1003 138.877 11.896C138.877 12.2546 138.822 12.5983 138.714 12.9271C138.606 13.2521 138.428 13.5416 138.182 13.7956C137.939 14.0496 137.614 14.2514 137.207 14.4008C136.799 14.5465 136.297 14.6193 135.699 14.6193H134.954V17.5332H133.217V9.34078H135.834ZM135.744 10.7641H134.954V13.196H135.526C135.851 13.196 136.133 13.1531 136.372 13.0672C136.611 12.9812 136.796 12.8467 136.926 12.6637C137.057 12.4806 137.123 12.2453 137.123 11.9576C137.123 11.5542 137.011 11.2553 136.786 11.0611C136.562 10.8631 136.215 10.7641 135.744 10.7641ZM143.584 17.5332H141.846V10.7865H139.622V9.34078H145.808V10.7865H143.584V17.5332ZM153.21 17.5332H151.473V10.7865H149.249V9.34078H155.435V10.7865H153.21V17.5332ZM159.145 11.1507C159.724 11.1507 160.222 11.2628 160.641 11.4869C161.059 11.7074 161.382 12.0286 161.61 12.4508C161.838 12.8729 161.952 13.3884 161.952 13.9973V14.8267H157.912C157.931 15.3086 158.074 15.6878 158.343 15.9642C158.616 16.2369 158.993 16.3733 159.475 16.3733C159.875 16.3733 160.241 16.3322 160.574 16.25C160.906 16.1678 161.248 16.0445 161.599 15.8801V17.2026C161.289 17.3558 160.964 17.4678 160.624 17.5388C160.288 17.6098 159.879 17.6453 159.397 17.6453C158.769 17.6453 158.213 17.5295 157.727 17.2979C157.245 17.0662 156.866 16.7132 156.589 16.2388C156.317 15.7643 156.18 15.1666 156.18 14.4456C156.18 13.7134 156.304 13.1045 156.55 12.6189C156.8 12.1295 157.148 11.7634 157.592 11.5206C158.037 11.274 158.554 11.1507 159.145 11.1507ZM159.156 12.3667C158.823 12.3667 158.547 12.4732 158.326 12.6861C158.11 12.899 157.985 13.2334 157.951 13.6892H160.349C160.346 13.4351 160.299 13.2091 160.209 13.0111C160.123 12.8131 159.993 12.6562 159.817 12.5404C159.645 12.4246 159.425 12.3667 159.156 12.3667ZM170.699 11.1507C171.409 11.1507 171.945 11.3338 172.307 11.6999C172.674 12.0622 172.857 12.645 172.857 13.4482V17.5332H171.142V13.8741C171.142 13.4258 171.065 13.0877 170.912 12.8598C170.759 12.6319 170.522 12.518 170.2 12.518C169.748 12.518 169.427 12.6805 169.237 13.0055C169.046 13.3268 168.951 13.7881 168.951 14.3896V17.5332H167.242V13.8741C167.242 13.5752 167.208 13.3249 167.141 13.1232C167.074 12.9215 166.971 12.7702 166.833 12.6693C166.694 12.5684 166.517 12.518 166.3 12.518C165.983 12.518 165.733 12.5983 165.55 12.759C165.37 12.9159 165.241 13.1493 165.163 13.4594C165.088 13.7657 165.051 14.1412 165.051 14.5857V17.5332H163.342V11.2684H164.647L164.877 12.0697H164.972C165.099 11.853 165.258 11.6775 165.449 11.543C165.643 11.4085 165.856 11.3095 166.087 11.246C166.319 11.1825 166.554 11.1507 166.793 11.1507C167.253 11.1507 167.642 11.2254 167.959 11.3749C168.28 11.5243 168.527 11.7559 168.699 12.0697H168.85C169.037 11.7484 169.3 11.515 169.64 11.3693C169.984 11.2236 170.337 11.1507 170.699 11.1507ZM178.102 11.1507C178.808 11.1507 179.377 11.4253 179.811 11.9745C180.248 12.5236 180.466 13.3287 180.466 14.3896C180.466 15.0994 180.363 15.6971 180.158 16.1827C179.953 16.6646 179.669 17.0289 179.306 17.2754C178.944 17.522 178.527 17.6453 178.057 17.6453C177.754 17.6453 177.494 17.6079 177.278 17.5332C177.061 17.4548 176.876 17.3558 176.723 17.2362C176.57 17.1129 176.437 16.9822 176.325 16.844H176.236C176.265 16.9934 176.288 17.1466 176.303 17.3035C176.318 17.4604 176.325 17.6135 176.325 17.7629V20.2902H174.616V11.2684H176.006L176.247 12.0809H176.325C176.437 11.9128 176.574 11.7578 176.734 11.6158C176.895 11.4739 177.087 11.3618 177.311 11.2796C177.539 11.1937 177.803 11.1507 178.102 11.1507ZM177.552 12.518C177.253 12.518 177.016 12.5796 176.841 12.7029C176.665 12.8262 176.536 13.0111 176.454 13.2577C176.376 13.5042 176.333 13.8162 176.325 14.1935V14.3784C176.325 14.7818 176.363 15.1237 176.437 15.4038C176.516 15.684 176.645 15.897 176.824 16.0427C177.007 16.1883 177.257 16.2612 177.575 16.2612C177.836 16.2612 178.051 16.1883 178.219 16.0427C178.387 15.897 178.512 15.684 178.595 15.4038C178.681 15.1199 178.724 14.7744 178.724 14.3672C178.724 13.7545 178.628 13.2932 178.438 12.9831C178.247 12.673 177.952 12.518 177.552 12.518ZM183.587 17.5332H181.878V8.81405H183.587V17.5332ZM187.953 11.1395C188.793 11.1395 189.438 11.3226 189.886 11.6887C190.334 12.0548 190.558 12.6114 190.558 13.3585V17.5332H189.365L189.034 16.6815H188.989C188.81 16.9056 188.627 17.0887 188.44 17.2306C188.253 17.3726 188.038 17.4772 187.796 17.5444C187.553 17.6117 187.258 17.6453 186.91 17.6453C186.54 17.6453 186.208 17.5743 185.913 17.4323C185.621 17.2904 185.392 17.0737 185.224 16.7823C185.056 16.4872 184.971 16.1136 184.971 15.6616C184.971 14.9967 185.205 14.5073 185.672 14.1935C186.139 13.8759 186.839 13.7004 187.773 13.6667L188.86 13.6331V13.3585C188.86 13.0298 188.774 12.7888 188.603 12.6357C188.431 12.4825 188.192 12.4059 187.885 12.4059C187.583 12.4059 187.286 12.4489 186.994 12.5348C186.703 12.6207 186.412 12.7291 186.12 12.8598L185.554 11.7055C185.887 11.5299 186.258 11.3917 186.669 11.2908C187.084 11.19 187.512 11.1395 187.953 11.1395ZM188.86 14.6306L188.199 14.653C187.646 14.6679 187.261 14.7669 187.045 14.95C186.832 15.133 186.725 15.374 186.725 15.6728C186.725 15.9343 186.802 16.1211 186.955 16.2332C187.108 16.3415 187.308 16.3957 187.555 16.3957C187.921 16.3957 188.229 16.2873 188.479 16.0707C188.733 15.854 188.86 15.5458 188.86 15.1461V14.6306ZM194.963 16.2836C195.149 16.2836 195.331 16.2649 195.506 16.2276C195.686 16.1902 195.863 16.1435 196.039 16.0875V17.3595C195.855 17.4417 195.628 17.5089 195.355 17.5612C195.086 17.6173 194.791 17.6453 194.47 17.6453C194.096 17.6453 193.76 17.5855 193.461 17.466C193.166 17.3427 192.932 17.1316 192.76 16.8328C192.592 16.5302 192.508 16.1099 192.508 15.572V12.5516H191.69V11.8288L192.632 11.2572L193.125 9.93476H194.217V11.2684H195.971V12.5516H194.217V15.572C194.217 15.811 194.285 15.9904 194.419 16.1099C194.557 16.2257 194.739 16.2836 194.963 16.2836ZM199.894 11.1507C200.473 11.1507 200.972 11.2628 201.39 11.4869C201.808 11.7074 202.131 12.0286 202.359 12.4508C202.587 12.8729 202.701 13.3884 202.701 13.9973V14.8267H198.661C198.68 15.3086 198.824 15.6878 199.092 15.9642C199.365 16.2369 199.742 16.3733 200.224 16.3733C200.624 16.3733 200.99 16.3322 201.323 16.25C201.655 16.1678 201.997 16.0445 202.348 15.8801V17.2026C202.038 17.3558 201.713 17.4678 201.373 17.5388C201.037 17.6098 200.628 17.6453 200.146 17.6453C199.518 17.6453 198.962 17.5295 198.476 17.2979C197.994 17.0662 197.615 16.7132 197.339 16.2388C197.066 15.7643 196.929 15.1666 196.929 14.4456C196.929 13.7134 197.053 13.1045 197.299 12.6189C197.55 12.1295 197.897 11.7634 198.342 11.5206C198.786 11.274 199.304 11.1507 199.894 11.1507ZM199.905 12.3667C199.573 12.3667 199.296 12.4732 199.076 12.6861C198.859 12.899 198.734 13.2334 198.7 13.6892H201.099C201.095 13.4351 201.048 13.2091 200.958 13.0111C200.873 12.8131 200.742 12.6562 200.566 12.5404C200.394 12.4246 200.174 12.3667 199.905 12.3667Z" fill="white"/>
</svg>
