<svg id="Capa_1" enable-background="new 0 0 512 512" height="512" viewBox="0 0 512 512" width="512" xmlns="http://www.w3.org/2000/svg"><g><g><path d="m90.841 305.543c0 22.767 18.523 41.29 41.29 41.29s41.29-18.523 41.29-41.29v-8.258h-82.58zm64.652 8.258c-3.411 9.612-12.593 16.516-23.362 16.516-10.768 0-19.951-6.904-23.362-16.516z"/><path d="m74.326 264.254c0-9.109 7.407-16.516 16.516-16.516s16.516 7.407 16.516 16.516h16.516c0-18.217-14.815-33.032-33.032-33.032s-33.032 14.815-33.032 33.032z"/><path d="m173.421 247.738c9.108 0 16.516 7.407 16.516 16.516h16.516c0-18.217-14.815-33.032-33.032-33.032s-33.032 14.815-33.032 33.032h16.516c0-9.109 7.407-16.516 16.516-16.516z"/><path d="m487.222 33.032h-8.258v-16.516c0-9.109-7.407-16.516-16.516-16.516h-16.516c-9.108 0-16.516 7.407-16.516 16.516v16.516h-16.516v-16.516c.001-9.109-7.407-16.516-16.515-16.516h-16.516c-9.109 0-16.516 7.407-16.516 16.516v16.516h-16.516v-16.516c0-9.109-7.407-16.516-16.516-16.516h-16.516c-9.109 0-16.516 7.407-16.516 16.516v16.516h-16.516v-16.516c.001-9.109-7.407-16.516-16.515-16.516h-16.516c-9.109 0-16.516 7.407-16.516 16.516v16.516h-16.516v-16.516c0-9.109-7.407-16.516-16.516-16.516h-16.516c-9.109 0-16.516 7.407-16.516 16.516v16.516h-8.258c-13.659 0-24.774 11.115-24.774 24.774v24.774c-72.851 0-132.127 59.275-132.127 132.127v173.417c0 40.984 33.346 74.321 74.321 74.321h.661c4.023 27.969 28.078 49.555 57.146 49.555h66.063c10.752 0 19.836-6.928 23.254-16.516h26.293c10.752 0 19.836-6.928 23.254-16.524h59.325v-115.611h-66.063v-33.032h222.964c13.659 0 24.774-11.115 24.774-24.774v-247.737c.001-13.659-11.114-24.774-24.773-24.774zm-41.29-16.516h16.516l.008 49.548h-16.524zm-66.063 0h16.516l.008 49.548h-16.524zm-66.063 0h16.516l.008 49.548h-16.524zm-66.064 0h16.516l.008 49.548h-16.524zm-66.063 0h16.516l.008 49.548h-16.524zm-33.032 41.29c0-4.558 3.708-8.258 8.258-8.258h8.258v16.516c0 9.108 7.407 16.516 16.516 16.516h16.516c9.109 0 16.516-7.407 16.516-16.516v-16.516h16.516v16.516c0 9.108 7.407 16.516 16.516 16.516h16.516c9.109 0 16.516-7.407 16.516-16.516v-16.516h16.516v16.516c0 9.108 7.407 16.516 16.516 16.516h16.516c9.109 0 16.516-7.407 16.516-16.516v-16.516h16.516v16.516c0 9.108 7.407 16.516 16.516 16.516h16.516c9.108 0 16.516-7.407 16.516-16.516v-16.516h16.516v16.516c0 9.108 7.407 16.516 16.516 16.516h16.516c9.108 0 16.516-7.407 16.516-16.516v-16.516h8.258c4.55 0 8.258 3.7 8.258 8.258v41.29h-299.526c-14.352-7.952-30.34-13.237-47.31-15.368zm57.805 429.42c0 4.558-3.708 8.258-8.258 8.258h-66.063c-22.767 0-41.29-18.523-41.29-41.29v-49.556c0-13.659 11.115-24.774 24.774-24.774v.017h.165c6.557.041 12.717 2.601 17.35 7.242 4.682 4.674 7.259 10.892 7.259 17.515v30.546l-15.12 22.693 13.741 9.158 14.055-21.099h45.13c4.55 0 8.258 3.7 8.258 8.258v33.032zm-128.237-294.461c10.446 13.328 26.648 21.941 44.849 21.941h91.647v90.837c0 31.867-25.938 57.806-57.806 57.806h-49.548c-31.876 0-57.806-25.938-57.806-57.814v-79.037c0-13.551 8.489-25.93 21.124-30.81zm73.834 192.831 4.93 2.114c17.449 7.482 29.497 23.345 32.305 41.719h-32.396l.017-24.79c0-6.772-1.8-13.205-4.856-19.043zm103.951 85.114c0 4.558-3.708 8.258-8.258 8.258h-24.774v-22.817l2.824-5.648c1.404-2.824 4.245-4.575 7.383-4.575h6.317v.008h5.483 2.766c4.55 0 8.258 3.7 8.258 8.25zm57.806-8.266h-41.29v-8.25c0-2.907-.595-5.665-1.519-8.258l26.293-.008v-16.516l-49.548.017v-49.564h66.063v82.579zm-82.58-99.095v66.204c-5.962.462-11.412 3.006-15.525 7.135-2.7-2.692-6.061-4.666-9.753-5.896-2.122-21.776-14.047-41.24-32.379-52.884 32.966-7.589 57.649-37.119 57.657-72.364v-90.837-8.258c0-27.978-20.034-51.62-47.632-56.228l-8.819-1.47-2.709 16.293 8.811 1.47c16.821 2.808 29.679 15.566 32.99 31.677h-90.804c-22.321 0-40.48-18.159-40.48-40.48v-.809l-16.516.809c0 7.25 1.412 14.162 3.889 20.546l-5.244 2.023c-18.944 7.325-31.677 25.897-31.677 46.22v79.037c0 33.379 22.123 61.687 52.479 71.043-6.887 7.374-11.189 17.201-11.189 28.06v41.29c-31.876 0-57.806-25.938-57.806-57.806v-173.418c0-63.751 51.86-115.611 115.611-115.611s115.611 51.86 115.611 115.611v148.643zm66.064-132.127h-33.032v-16.516c0-5.607-.462-11.09-1.148-16.516h34.18zm16.516-33.032h66.063v33.032h-66.063zm-49.548 49.548h33.032v33.032h-33.032zm49.548 0h66.063v33.032h-66.063zm82.579 0h66.063v33.032h-66.063zm66.063-16.516h-66.063v-33.032h66.063zm0-49.548h-66.063v-33.032h66.063zm-82.579 0h-66.063v-33.032h66.063zm-82.579 0h-37.384c-3.031-11.718-7.589-22.8-13.526-33.032h50.91zm189.932 132.127h-222.964v-16.516h214.706v-165.158h-243.857c-4.798-5.97-10.132-11.462-15.88-16.516h276.253v189.932c0 4.559-3.708 8.258-8.258 8.258z"/><path d="m264.258 396.381h33.032v16.516h-33.032z"/><path d="m470.706 363.349h-90.837v66.897c-18.82 3.84-33.032 20.513-33.032 40.456 0 22.767 18.523 41.29 41.29 41.29h90.837v-66.897c18.82-3.84 33.032-20.513 33.032-40.456 0-22.767-18.523-41.29-41.29-41.29zm-8.258 132.127h-74.321c-13.659 0-24.774-11.115-24.774-24.774s11.115-24.774 24.774-24.774h74.321zm8.258-66.064h-74.321v-49.548h74.321c13.659 0 24.774 11.115 24.774 24.774s-11.115 24.774-24.774 24.774z"/><path d="m379.869 462.444h66.063v16.516h-66.063z"/><path d="m412.901 396.381h66.063v16.516h-66.063z"/></g></g></svg>