<svg height="512" viewBox="0 0 100 100" width="512" xmlns="http://www.w3.org/2000/svg"><g id="Layer_9_copy" data-name="Layer 9 copy"><path d="m23.42 92.06a6.11 6.11 0 0 0 5.83 4.33 6.22 6.22 0 0 0 1.75-.25l39.62-11.93 7.13-.93a6.08 6.08 0 0 0 5.25-6.82l-3.76-28.7 11.84-18.16 2.92-4.41 1.4-2.19a6.77 6.77 0 0 0 -11.34-7.41l-1.44 2.21-2.88 4.4-3.23 4.94-2.41-18.35a6.08 6.08 0 0 0 -6.82-5.24l-42.08 5.53a6.06 6.06 0 0 0 -5.27 6.42l-12.1 3.64a6.08 6.08 0 0 0 -4.07 7.57zm60.89-71.37 3.16 2.06 3.15 2.06-1.24 1.9-6.31-4.12zm2.26-3.47a3.77 3.77 0 0 1 6.32 4.13l-.62.95-6.27-4.13zm-5.14 7.88 3.16 2.06 3.15 2.06-19.25 29.48-3.16-2.06-3.15-2.06zm-23 40.31.6-1.92a4.74 4.74 0 0 1 2.54 1.66l-1.52 1.32a1 1 0 0 1 -1.62-1.06zm5.4-2.23a7.65 7.65 0 0 0 -3.92-2.56l1-3.27 5.49 3.59zm-40.29-49.95a3.09 3.09 0 0 1 2.05-1.18l42.08-5.52a2.83 2.83 0 0 1 .41 0 3.09 3.09 0 0 1 3 2.68l2.92 21.79-7.66 11.71-15.06 2a1.5 1.5 0 0 0 .19 3h.2l12.51-1.71-5.33 8.17a.93.93 0 0 0 0 .1.88.88 0 0 0 -.09.2s0 0 0 0l-.93 3-21.32 2.87a1.5 1.5 0 0 0 .2 3h.19l19.87-2.6-1.18 3.82a4 4 0 0 0 1.63 4.53 4 4 0 0 0 2.19.66 4 4 0 0 0 2.62-1l7.88-6.82.08-.09a1 1 0 0 0 .16-.19l6.52-10 3.33 25.2a3.07 3.07 0 0 1 -.61 2.28 3 3 0 0 1 -2 1.17l-42.12 5.53a3.08 3.08 0 0 1 -3.45-2.66l-8.89-67.66a3.09 3.09 0 0 1 .61-2.28zm-14.84 8.77 11.6-3.49 8.54 65.05a6.09 6.09 0 0 0 6 5.29 5.39 5.39 0 0 0 .8-.06l16.48-2.16-22 6.62a3.07 3.07 0 0 1 -3.82-2.05l-19.67-65.35a3.09 3.09 0 0 1 2.07-3.85zm30.24-1.6a1.5 1.5 0 0 1 1.29-1.68l24-3.16a1.5 1.5 0 0 1 .39 3l-24 3.15h-.19a1.51 1.51 0 0 1 -1.49-1.31zm-7.26 14.66a1.5 1.5 0 0 1 1.32-1.68l33-4.38a1.5 1.5 0 0 1 .39 3l-33.03 4.36h-.19a1.51 1.51 0 0 1 -1.49-1.3zm11.21 12.24a1.5 1.5 0 0 1 -1.29 1.7l-6.47.85h-.19a1.5 1.5 0 0 1 -.2-3l6.47-.85a1.5 1.5 0 0 1 1.68 1.3zm-5.89 28.2a1.5 1.5 0 0 1 1.29-1.68l11.51-1.51a1.5 1.5 0 1 1 .4 3l-11.53 1.48h-.19a1.5 1.5 0 0 1 -1.48-1.29z"/></g></svg>