<svg id="Capa_1" enable-background="new 0 0 512 512" height="512" viewBox="0 0 512 512" width="512" xmlns="http://www.w3.org/2000/svg"><g><path d="m258.428 255.549c-25.805 8.063-51.427.161-51.884.018-3.94-1.264-8.161.899-9.431 4.838-1.272 3.942.893 8.169 4.835 9.44.81.261 13.79 4.351 31.317 4.351 9.021 0 19.247-1.083 29.637-4.33 3.953-1.235 6.157-5.442 4.921-9.396-1.235-3.952-5.433-6.157-9.395-4.921z"/><path d="m414.225 402.601c-5.653 0-10.253-4.6-10.253-10.253v-30.844c0-4.142-3.357-7.5-7.5-7.5h-10.299c-4.143 0-7.5 3.358-7.5 7.5s3.357 7.5 7.5 7.5h2.799v23.344c0 13.924 11.328 25.253 25.253 25.253h3.953v22.599c0 4.142 3.357 7.5 7.5 7.5s7.5-3.358 7.5-7.5v-22.599h3.915c13.925 0 25.253-11.329 25.253-25.253v-23.344h2.837c4.143 0 7.5-3.358 7.5-7.5s-3.357-7.5-7.5-7.5h-10.337c-4.143 0-7.5 3.358-7.5 7.5v30.844c0 5.653-4.6 10.253-10.253 10.253h-3.915v-41.097c0-4.142-3.357-7.5-7.5-7.5s-7.5 3.358-7.5 7.5v41.097z"/><path d="m511.89 390.338c0-19.696-6.815-38.956-19.191-54.232-12.192-15.051-29.26-25.665-48.057-29.886-4.046-.907-8.054 1.634-8.961 5.675-.908 4.042 1.633 8.053 5.674 8.961 15.518 3.484 29.612 12.253 39.688 24.692 10.219 12.614 15.847 28.521 15.847 44.79 0 39.266-31.945 71.211-71.212 71.211-39.266 0-71.211-31.945-71.211-71.211-.644-31.644 23.395-62.549 55.152-69.395 4.036-.93 6.555-4.956 5.625-8.992-.931-4.037-4.956-6.554-8.992-5.625-18.688 4.305-35.642 14.945-47.738 29.958-15.691 19.337-22.381 45.928-17.368 70.986h-14.342l-33.674-30.224v-38.228c40.094-16.697 65.276-52.534 66.866-95.253 22.127-3.561 39.085-22.784 39.085-45.9v-24.77c0-10.703-6.856-19.831-16.406-23.233l6.037-52.156c2.865-24.754-4.998-49.623-21.575-68.229-16.575-18.606-40.375-29.277-65.294-29.277h-138.77c-24.919 0-48.718 10.671-65.295 29.277s-24.44 43.475-21.575 68.229l6.037 52.156c-9.55 3.402-16.406 12.531-16.406 23.233v24.77c0 23.114 16.955 42.335 39.079 45.899 1.59 42.721 26.776 78.559 66.877 95.254v38.223l-33.679 30.229h-72.131c-36.321 0-65.87 29.549-65.87 65.87v31.36c0 4.142 3.358 7.5 7.5 7.5s7.5-3.358 7.5-7.5v-31.36c0-28.05 22.82-50.87 50.87-50.87h71.938l89.287 87.584c2.554 2.569 7.446 3.087 10.504 0l89.287-87.584h18.626c12.718 31.77 43.797 54.279 80.055 54.279 8.373 0 16.462-1.223 24.122-3.459 0 .017.001.033.001.05v31.36c0 4.142 3.357 7.5 7.5 7.5s7.5-3.358 7.5-7.5v-31.36c0-1.968-.088-3.933-.26-5.884 28.062-14.236 47.35-43.358 47.35-76.918zm-236.805 61.843-31.278-35.817 41.078-26.563 28.09 25.212zm-50.127 34.456-24.4-23.934 24.4-27.941zm15-51.876 24.4 27.942-24.4 23.935zm144.124-237.095c0 14.785-10.238 27.222-23.998 30.595v-65.024h14.339c5.326 0 9.659 4.333 9.659 9.659zm-275.104-158.411c13.733-15.414 33.45-24.255 54.095-24.255h138.77c20.645 0 40.362 8.841 54.096 24.255 13.732 15.415 20.248 36.018 17.874 56.526l-6.071 52.455h-13.112c-7.172-4.418-37.321-24.881-45.195-60.86-.585-2.675-2.582-4.819-5.21-5.592-2.629-.773-5.468-.051-7.408 1.88-20.39 20.3-41.553 30.407-62.996 30.061-20.882-.345-43.125-10.581-66.11-30.423-2.001-1.728-4.763-2.274-7.271-1.438s-4.391 2.93-4.956 5.512c-7.876 35.991-38.045 56.457-45.194 60.86h-13.114l-6.072-52.455c-2.375-20.508 4.141-41.111 17.874-56.526zm-28.144 158.411v-24.77c0-5.326 4.333-9.659 9.659-9.659h14.337v65.024c-13.758-3.374-23.996-15.811-23.996-30.595zm38.997 41.584.001-79.276c9.909-6.333 35.687-25.355 47.075-57.979 22.65 17.387 45.036 26.371 66.666 26.728 22.309.36 44.024-8.368 64.696-25.996 11.514 32.167 36.972 50.954 46.812 57.244v79.278c0 39.889-23.769 73.382-62.03 87.408-2.955 1.083-4.919 3.896-4.919 7.042v42.605l-45.673 29.534-45.667-29.531v-35.107h62.618c4.142 0 7.5-3.358 7.5-7.5s-3.358-7.5-7.5-7.5h-68.721c-37.57-14.279-60.858-47.476-60.858-86.95zm60.201 150.551 41.078 26.563-31.278 35.817-37.891-37.168z"/><path d="m140.983 461.549h-28.651c-4.142 0-7.5 3.358-7.5 7.5s3.358 7.5 7.5 7.5h28.651c4.142 0 7.5-3.358 7.5-7.5s-3.358-7.5-7.5-7.5z"/><path d="m223.862 198.074h15.768c3.595 21.925 22.667 38.71 45.593 38.71 25.48 0 46.21-20.73 46.21-46.21s-20.729-46.21-46.21-46.21c-22.926 0-41.998 16.785-45.593 38.71h-15.768c-3.595-21.925-22.666-38.71-45.592-38.71-17.461 0-33.242 9.668-41.183 25.231-1.882 3.689-.418 8.207 3.272 10.089 3.687 1.882 8.206.418 10.089-3.272 5.366-10.516 16.027-17.049 27.822-17.049 17.209 0 31.21 14.001 31.21 31.21s-14.001 31.21-31.21 31.21c-11.95 0-22.672-6.657-27.984-17.372-1.84-3.711-6.34-5.229-10.051-3.389s-5.229 6.339-3.389 10.051c7.861 15.858 23.733 25.71 41.423 25.71 22.926.002 41.998-16.784 45.593-38.709zm61.361-38.71c17.209 0 31.21 14.001 31.21 31.21s-14.001 31.21-31.21 31.21c-17.21 0-31.211-14.001-31.211-31.21s14.001-31.21 31.211-31.21z"/></g></svg>