<svg id="Layer_1" enable-background="new 0 0 512 512" height="512" viewBox="0 0 512 512" width="512" xmlns="http://www.w3.org/2000/svg"><path d="m142.559 416.446v-25.626l-45.45-25.496v75.491c0 3.82-3.099 6.919-6.919 6.919s-6.919-3.099-6.919-6.919v-87.306c0-2.455 1.302-4.73 3.423-5.968 2.113-1.252 4.734-1.27 6.883-.068l59.284 33.261c2.185 1.225 3.536 3.532 3.536 6.036v29.676c0 3.82-3.099 6.919-6.919 6.919s-6.919-3.099-6.919-6.919zm-127.262-70.478v-82.473c0-23.516 23.225-34.043 46.243-34.043h5.753c-9.188-8.479-15.19-22.112-15.19-37.507 0-23.622 14.189-38.295 37.027-38.295 22.842 0 37.032 14.673 37.032 38.295 0 15.395-6.002 29.028-15.191 37.507h54.3c2.207 0 3.959-.288 6.054-.995l25.852-8.732 17.459-6.095 37.779-13.345c3.356-1.185 5.878-2.928 8.171-5.653l12.122-14.412c13.68-16.275 24.482-29.131 44.64-29.131l18.13-.196c-10.613-8.408-17.702-23.24-17.702-40.151 0-24.065 14.455-39.016 37.721-39.016 23.27 0 37.725 14.95 37.725 39.016 0 16.609-6.83 31.229-17.128 39.711h42.08l.107-40.9c0-10.858 7.237-19.679 17.329-22.493v-80.141c0-3.822 3.099-6.919 6.919-6.919h62.554c2.419 0 4.662 1.264 5.914 3.331 1.257 2.068 1.338 4.64.221 6.784l-7.275 13.971 7.275 13.971c1.117 2.144 1.036 4.716-.221 6.784-1.252 2.068-3.495 3.331-5.914 3.331h-55.635v39.052c9.527 3.009 16.5 11.823 16.5 22.331v64.187c0 13.133-10.676 23.818-23.793 23.818l-29.005 1.158c-5.59.007-10.622 2.11-14.437 5.932s-5.919 8.865-5.919 14.198v46.108l57.347 33.153c2.14 1.239 3.455 3.523 3.455 5.991v57.856c0 3.82-3.099 6.919-6.919 6.919s-6.919-3.099-6.919-6.919v-53.866l-57.347-33.153c-2.14-1.239-3.455-3.523-3.455-5.991v-50.099c0-9.025 3.541-17.538 9.964-23.975 6.432-6.441 14.941-9.986 23.955-9.986l29.005-1.158c5.766-.007 10.23-4.484 10.23-9.986v-64.187c0-5.34-4.347-9.685-9.689-9.685-5.968 0-10.302 4.072-10.302 9.685l-.09 42.263c0 7.151-5.82 13.032-12.977 13.108l-101.626.003c-13.207 0-20.387 7.854-34.122 24.196l-12.131 14.417c-3.919 4.658-8.414 7.768-14.149 9.795l-25.343 8.953c1.947 2.03 3.595 4.404 4.74 7.151 1.579 3.786 2.023 7.819 1.542 11.782l36.197-11.178c3.45-1.065 6.068-2.736 8.482-5.423l19.194-21.351c1.919-2.135 4.95-2.865 7.622-1.833 2.676 1.025 4.441 3.595 4.441 6.459v180.867c0 3.82-3.099 6.919-6.919 6.919s-6.919-3.099-6.919-6.919v-162.825l-7.131 7.932c-4.126 4.59-8.793 7.574-14.689 9.392l-55.023 16.991c-.006.002-.012.002-.018.003l-39.541 14.107c-3.68 1.311-7.072 1.896-10.995 1.896h-18.626c-5.14 0-10.005 2.036-13.698 5.739-3.694 3.698-5.73 8.577-5.73 13.73v35.149l55.982 32.365c2.14 1.239 3.455 3.523 3.455 5.991v47.212c0 3.82-3.099 6.919-6.919 6.919s-6.919-3.099-6.919-6.919v-43.221l-55.982-32.365c-2.14-1.239-3.455-3.523-3.455-5.991v-39.14c0-8.847 3.473-17.194 9.775-23.509 6.311-6.32 14.653-9.797 23.491-9.797h18.626c2.329 0 4.167-.315 6.347-1.095l39.842-14.203c2.018-.849 3.847-2.685 4.815-5.043.968-2.36.964-4.959-.023-7.32-2.032-4.876-7.64-7.189-12.495-5.171-.144.061-35.396 11.975-35.396 11.975-3.532 1.191-6.766 1.723-10.482 1.723h-103.731c-3.315 0-32.405.568-32.405 20.205v82.473c0 8.847 6.1 16.301 14.514 19.031v-91.148c0-3.82 3.099-6.919 6.919-6.919s6.919 3.099 6.919 6.919v99.198c0 .016.005.03.005.045s-.005.029-.005.045v67.676c0 3.82-3.099 6.919-6.919 6.919s-6.919-3.099-6.919-6.919v-61.468c-16.147-3.115-28.353-16.894-28.353-33.378zm434.149-311.635h44.23l-3.671-7.052c-1.045-2.002-1.045-4.39 0-6.392l3.671-7.052h-44.23zm-117.833 76.41c0 18.538 10.712 33.622 23.883 33.622s23.887-15.083 23.887-33.622c0-21.908-14.964-25.178-23.887-25.178-8.919 0-23.883 3.271-23.883 25.178zm-265.672 81.203c0 18.038 10.401 32.712 23.189 32.712s23.194-14.673 23.194-32.712c0-21.279-14.532-24.457-23.194-24.457s-23.189 3.178-23.189 24.457zm342.221 176.928c3.82 0 6.919-3.099 6.919-6.919v-39.919c0-2.505-1.351-4.811-3.536-6.036l-60.653-34.023c-2.135-1.203-4.761-1.185-6.878.068-2.122 1.239-3.423 3.514-3.423 5.968v100.748c0 3.82 3.099 6.919 6.919 6.919s6.919-3.099 6.919-6.919v-88.932l46.815 26.261v35.865c-.001 3.82 3.098 6.919 6.918 6.919zm96.919 26.099h-124.54c-3.82 0-6.919 3.099-6.919 6.919v20.829h-117.622c-3.82 0-6.919 3.099-6.919 6.919v16.23h-117.622c-3.82 0-6.919 3.099-6.919 6.919v19.225h-117.621c-3.82 0-6.919 3.099-6.919 6.919v26.149c0 3.819 3.099 6.918 6.919 6.918s6.919-3.099 6.919-6.919v-19.23h110.703v19.23c0 3.82 3.099 6.919 6.919 6.919s6.919-3.099 6.919-6.919v-45.374h110.703v45.374c0 3.82 3.099 6.919 6.919 6.919s6.919-3.099 6.919-6.919v-68.523h110.703v68.523c0 3.82 3.099 6.919 6.919 6.919s6.919-3.099 6.919-6.919v-96.27h110.703v96.27c0 3.82 3.099 6.919 6.919 6.919s6.919-3.099 6.919-6.919v-103.189c-.002-3.82-3.101-6.919-6.921-6.919z"/></svg>