<svg height="496pt" viewBox="0 0 496 496" width="496pt" xmlns="http://www.w3.org/2000/svg"><path d="m240 32h16v16h-16zm0 0"/><path d="m89.605469 100.921875 11.3125-11.3125 11.3125 11.3125-11.3125 11.3125zm0 0"/><path d="m32 240h16v16h-16zm0 0"/><path d="m448 240h16v16h-16zm0 0"/><path d="m216 408h64v16h-64zm0 0"/><path d="m216 440h64v16h-64zm0 0"/><path d="m496 136v-80c0-8.824219-7.175781-16-16-16h-128c-7.105469 0-13.0625 4.679688-15.152344 11.097656-10.550781-4.753906-21.519531-8.671875-32.75-11.691406l-9.851562-39.40625h-92.492188l-9.851562 39.40625c-18.183594 4.875-35.550782 12.058594-51.757813 21.417969l-34.800781-20.886719-65.398438 65.40625 20.878907 34.800781c-9.351563 16.207031-16.535157 33.574219-21.417969 51.757813l-39.40625 9.851562v92.492188l39.457031 9.859375c5.34375 18.628906 14.375 33.453125 23.894531 49.070312l.648438 1.0625v29.761719h120v112h128v-128h-96v16h80v96h-96v-112h-64v-23.550781c0-10.800781 7.273438-20.320313 17.679688-23.160157l40.222656-10.976562 18.539062 46.34375 35.558594-26.65625 35.550781 26.664062 18.539063-46.34375 40.222656 10.976563c10.40625 2.832031 17.679688 12.359375 17.679688 23.160156v23.542969h-32v16h104v-29.761719l.648437-1.0625c9.519531-15.617187 18.550781-30.441406 23.894531-49.070312l39.464844-9.859375v-92.492188l-39.40625-9.851562c-3.707031-13.8125-8.761719-27.167969-15.074219-39.902344h38.480469c8.824219 0 16-7.175781 16-16zm-144-80h128v80h-71.832031l-32.167969 18.265625v-18.265625h-24zm-274.992188 288.847656c-10.054687-16.503906-18.75-30.769531-23.265624-49.253906l-1.148438-4.699219-36.59375-9.140625v-67.507812l36.601562-9.148438 1.152344-4.691406c4.855469-19.886719 12.660156-38.773438 23.222656-56.132812l2.503907-4.128907-19.390625-32.328125 47.726562-47.738281 32.328125 19.402344 4.128907-2.511719c17.359374-10.554688 36.246093-18.367188 56.132812-23.226562l4.691406-1.148438 9.148438-36.59375h67.507812l9.148438 36.601562 4.691406 1.140626c14.007812 3.425781 27.550781 8.417968 40.40625 14.714843v17.957031c-26.902344-14.679687-57.03125-22.414062-88-22.414062-101.457031 0-184 82.542969-184 184 0 44.710938 15.6875 86.65625 44.542969 120h-28.542969v-18.238281zm74.992188-96.847656c0-23.695312 8.664062-45.9375 24-63.3125v34.472656c0 4.761719 1.390625 9.359375 4.03125 13.3125l24.5625 36.839844c.980469 1.472656 2.160156 2.757812 3.40625 3.953125v16.621094l-40.152344 10.953125c-10.382812-15.664063-15.847656-33.777344-15.847656-52.839844zm192 0c0 19.0625-5.464844 37.175781-15.847656 52.839844l-40.152344-10.953125v-16.621094c1.246094-1.203125 2.425781-2.480469 3.40625-3.953125l24.5625-36.839844c2.640625-3.960937 4.03125-8.5625 4.03125-13.320312v-34.472656c15.335938 17.382812 24 39.625 24 63.320312zm-72 44-24 18-24-18v-12.070312c.191406.007812.367188.070312.558594.070312h46.875c.191406 0 .367187-.0625.558594-.070312v12.070312zm-80-100h49.367188c14.03125 0 27.367187-4.585938 38.28125-13.046875 6.785156 6.542969 15.222656 10.710937 24.34375 12.277344v27.921875c0 1.582031-.464844 3.121094-1.34375 4.441406l-24.558594 36.839844c-1.480469 2.238281-3.96875 3.566406-6.648438 3.566406h-46.882812c-2.679688 0-5.167969-1.328125-6.65625-3.558594l-24.558594-36.847656c-.878906-1.320312-1.34375-2.851562-1.34375-4.433594zm112-17.183594c-5.105469-1.375-9.816406-3.945312-13.65625-7.785156l-10.34375-10.34375-5.65625 5.65625c-8.808594 8.808594-20.511719 13.65625-32.976562 13.65625h-49.367188v-7.433594c0-26.773437 21.792969-48.566406 48.566406-48.566406 12.976563 0 25.167969 5.046875 34.34375 14.222656l8.769532 8.769532 1.792968.601562c11.078125 3.695312 18.527344 14.023438 18.527344 25.703125zm-84.449219 156.519532-10.101562-25.257813 4.878906-1.324219 20.335937 15.246094zm56.898438 0-15.113281-11.335938 20.335937-15.257812 4.878906 1.328124zm70.078125-25.488282-2.320313-.632812c10.3125-17.238282 15.792969-36.742188 15.792969-57.214844 0-33.648438-14.863281-64.839844-40.710938-86.214844-2.601562-14.738281-12.671874-27.242187-26.898437-32.714844l-6.167969-6.167968c-12.191406-12.183594-28.40625-18.902344-45.65625-18.902344-33.429687 0-61 25.535156-64.246094 58.128906-25.601562 21.367188-40.320312 52.398438-40.320312 85.871094 0 20.472656 5.480469 39.976562 15.792969 57.214844l-2.320313.632812c-17.351562 4.738282-29.472656 20.609375-29.472656 38.601563v12.246093c-25.886719-30.304687-40-68.253906-40-108.695312 0-92.640625 75.359375-168 168-168 31.273438 0 61.566406 8.679688 88 24.984375v31.015625c0 8.824219 7.175781 16 16 16h8v29.734375l32.871094-18.65625c15.097656 25.707031 23.128906 54.867187 23.128906 84.921875 0 40.441406-14.113281 78.390625-40 108.695312v-12.246093c0-17.992188-12.121094-33.863281-29.472656-38.601563zm95.730468-105.441406 1.148438 4.691406 36.59375 9.148438v67.507812l-36.601562 9.148438-1.152344 4.699218c-4.511719 18.496094-13.207032 32.75-23.261719 49.253907l-2.984375 4.90625v18.238281h-28.542969c28.855469-33.34375 44.542969-75.289062 44.542969-120 0-32.839844-8.761719-64.703125-25.214844-92.816406l5.613282-3.183594h10.96875c8.328124 15.199219 14.746093 31.433594 18.890624 48.40625zm0 0"/><path d="m408 104h16v16h-16zm0 0"/><path d="m440 104h16v16h-16zm0 0"/><path d="m376 104h16v16h-16zm0 0"/><path d="m368 72h96v16h-96zm0 0"/></svg>