<svg height="512" viewBox="0 0 64 64" width="512" xmlns="http://www.w3.org/2000/svg"><g id="Project-Planing-Document-File-Businessman"><path d="m15 28h2v2h-2z"/><path d="m21 28h2v2h-2z"/><path d="m23 33h-2a2 2 0 0 1 -4 0h-2a4 4 0 0 0 8 0z"/><path d="m61.74 12.33-9-10a1 1 0 0 0 -.74-.33h-33a5 5 0 0 0 -5 5v11a5 5 0 0 0 -5 5v4a3 3 0 0 0 0 6h.06a9 9 0 0 0 4.94 7.05v2.23l-5.85 1.95a8.991 8.991 0 0 0 -6.15 8.54v8.23a1 1 0 0 0 1 1h54a5 5 0 0 0 5-5v-44a.971.971 0 0 0 -.26-.67zm-52.74 18.67a1 1 0 0 1 0-2zm44-25.39 5.75 6.39h-4.75a1 1 0 0 1 -1-1zm-42 17.39a3.009 3.009 0 0 1 3-3h11v3.21c-.59.09-1.13.2-1.66.3a20.383 20.383 0 0 1 -4.34.49 6.157 6.157 0 0 1 -2.65-.44 8.214 8.214 0 0 0 -3.35-.56 1 1 0 0 0 -1 1v3h-1zm4.08 37h-5.08v-9h-2v9h-4v-7.23a6.978 6.978 0 0 1 4.79-6.64l2.44-.82 1.91 3.2a.969.969 0 0 0 .74.48.487.487 0 0 0 .12.01 1.007 1.007 0 0 0 .71-.29l.53-.54.73 1.09zm-.88-13.61-1.03-1.72 1.75-.59 1.06.53zm-3.2-14.39v-3h2a1 1 0 0 0 1-1v-2.96a5.222 5.222 0 0 1 1.65.4 8.214 8.214 0 0 0 3.35.56 22.337 22.337 0 0 0 4.73-.53c.4-.08.83-.16 1.27-.23v6.76a7 7 0 0 1 -14 0zm6.09 28 .83-10h.16l.83 10zm1.37-12h-.92l-.85-1.27 1.31-1.32 1.31 1.32zm1.54-5.62-1.24.62h-1.52l-1.24-.62v-1.61a8.811 8.811 0 0 0 4 0zm1.08 1.7 1.75.59-1.03 1.72-1.78-1.78zm10.92 15.92h-4v-9h-2v9h-5.08l-.89-10.74.73-1.09.53.54a1.007 1.007 0 0 0 .71.29.487.487 0 0 0 .12-.01.969.969 0 0 0 .74-.48l1.91-3.2 2.44.82a6.978 6.978 0 0 1 4.79 6.64zm28-3a3.009 3.009 0 0 1 -3 3h-23v-7.23a8.991 8.991 0 0 0 -6.15-8.54l-5.85-1.95v-2.23a9.008 9.008 0 0 0 5-8.05v-13a1 1 0 0 0 -1-1h-10v-11a3.009 3.009 0 0 1 3-3h32v7a3.009 3.009 0 0 0 3 3h6z"/><path d="m20 8h2v2h-2z"/><path d="m24 8h2v2h-2z"/><path d="m28 8h14v2h-14z"/><path d="m20 12h22v2h-22z"/><path d="m52 30h-4a2 2 0 0 0 -2 2v1h-4v-1a2 2 0 0 0 -2-2h-1v-4h1a2 2 0 0 0 2-2v-4a2 2 0 0 0 -2-2h-4a2 2 0 0 0 -2 2v4a2 2 0 0 0 2 2h1v4h-1a2 2 0 0 0 -2 2v4a2 2 0 0 0 2 2h1v4h-1a2 2 0 0 0 -2 2v4a2 2 0 0 0 2 2h4a2 2 0 0 0 2-2v-1h8a1 1 0 0 0 1-1v-8h1a2 2 0 0 0 2-2v-4a2 2 0 0 0 -2-2zm-16-10h4v4h-4zm0 12h4v4h-4zm0 16v-4h4v4zm13-3h-7v-1a2 2 0 0 0 -2-2h-1v-4h1a2 2 0 0 0 2-2v-1h4v1a2 2 0 0 0 2 2h1zm-1-9v-4h4v4z"/></g></svg>