<svg id="Capa_1" enable-background="new 0 0 512 512" height="512" viewBox="0 0 512 512" width="512" xmlns="http://www.w3.org/2000/svg"><g><path d="m447.509 64.492c-41.588-41.588-96.882-64.492-155.697-64.492s-114.109 22.904-155.696 64.492c-3.038 3.038-6.02 6.197-8.863 9.389-2.76 3.099-2.486 7.85.614 10.61 3.1 2.761 7.851 2.485 10.61-.614 2.651-2.977 5.433-5.923 8.267-8.758 38.749-38.749 90.269-60.09 145.069-60.09s106.319 21.34 145.068 60.09c79.991 79.991 79.991 210.146 0 290.137-38.749 38.749-90.269 60.09-145.068 60.09-54.8 0-106.32-21.34-145.069-60.09-33.691-33.691-54.707-78.322-59.176-125.671-4.412-46.738 7.377-93.882 33.194-132.749 2.296-3.457 1.355-8.122-2.102-10.418-3.456-2.296-8.121-1.355-10.418 2.102-27.715 41.724-40.372 92.324-35.637 142.478 3.662 38.8 17.685 75.891 40.198 107.361l-22.068 22.068c-2.935-2.931-7.691-2.931-10.624.003l-67.401 67.401c-16.945 16.944-16.945 44.516 0 61.46 8.471 8.473 19.6 12.709 30.729 12.709s22.258-4.236 30.73-12.708l19.049-19.049c2.935-2.935 2.935-7.693 0-10.628s-7.693-2.935-10.628 0l-19.049 19.049c-5.37 5.37-12.509 8.327-20.103 8.327s-14.733-2.957-20.103-8.327-8.327-12.509-8.327-20.103 2.957-14.733 8.327-20.103l62.087-62.087 40.205 40.205-21.783 21.783c-2.935 2.935-2.935 7.693 0 10.628s7.693 2.935 10.628 0l27.096-27.096c2.934-2.934 2.935-7.69.003-10.624l22.025-22.025c37.138 26.713 81.564 41.135 128.214 41.135 58.815 0 114.108-22.904 155.697-64.492s64.493-96.883 64.493-155.697-22.904-114.108-64.491-155.696zm-316.564 346.146-29.584-29.584 20.678-20.678c4.433 5.372 9.122 10.554 14.076 15.508 4.971 4.971 10.143 9.666 15.488 14.096z"/><path d="m368.689 380.394c18.054-8.664 34.453-20.301 48.741-34.588 69.265-69.266 69.265-181.969 0-251.235-69.267-69.266-181.969-69.265-251.235 0-69.265 69.266-69.265 181.969 0 251.235 33.727 33.727 79.262 52.011 125.827 52.01 15.776 0 31.675-2.099 47.266-6.408 4-1.105 6.347-5.244 5.242-9.245-1.107-4.001-5.246-6.347-9.245-5.242-56.412 15.587-117.128-.408-158.462-41.743-63.406-63.406-63.406-166.574 0-229.979 63.405-63.404 166.571-63.406 229.979 0 63.406 63.406 63.406 166.574.001 229.979-13.086 13.084-28.096 23.738-44.616 31.666-3.742 1.796-5.319 6.284-3.524 10.026 1.796 3.743 6.285 5.317 10.026 3.524z"/><path d="m300.865 185.944c4.151 0 7.515-3.365 7.515-7.515s-3.364-7.515-7.515-7.515h-35.191c-4.151 0-7.515 3.365-7.515 7.515v83.518c0 4.15 3.364 7.515 7.515 7.515h35.191c4.151 0 7.515-3.365 7.515-7.515s-3.364-7.515-7.515-7.515h-27.676v-26.729h25.081c4.151 0 7.515-3.365 7.515-7.515s-3.364-7.515-7.515-7.515h-25.081v-26.729z"/><path d="m211.785 254.817c-9.216 0-18.114-3.748-23.804-10.026-2.787-3.075-7.539-3.309-10.615-.521-3.076 2.787-3.309 7.539-.521 10.615 8.491 9.369 21.553 14.962 34.941 14.962 16.034 0 30.004-10.516 32.494-24.462 2.872-16.088-9.778-26.863-22.574-31.583-10.847-4.001-20.908-8.369-23.447-9.485-2.693-1.973-4-5.126-3.511-8.536.617-4.292 3.915-7.738 8.823-9.216 13.533-4.073 25.752 5.732 25.984 5.921 3.176 2.645 7.897 2.228 10.561-.94 2.67-3.177 2.26-7.917-.917-10.588-.744-.626-18.483-15.252-39.962-8.784-10.498 3.162-17.919 11.389-19.366 21.472-1.347 9.387 2.718 18.415 10.609 23.56.332.216.681.406 1.043.568.484.216 12.002 5.343 24.982 10.131 9.319 3.437 14.049 8.846 12.979 14.84-1.047 5.852-7.605 12.072-17.699 12.072z"/><path d="m415.096 220.188c0-27.382-22.277-49.659-49.66-49.659-27.382 0-49.658 22.277-49.658 49.659s22.276 49.658 49.658 49.658c27.383.001 49.66-22.276 49.66-49.658zm-84.287 0c0-19.094 15.534-34.629 34.628-34.629 19.095 0 34.63 15.534 34.63 34.629s-15.535 34.629-34.63 34.629c-19.094 0-34.628-15.534-34.628-34.629z"/></g></svg>