<?xml version="1.0" encoding="UTF-8"?>
<svg xmlns="http://www.w3.org/2000/svg" id="outline" viewBox="0 0 512 512" width="512" height="512"><path d="M472,344H352a8,8,0,0,0-7.26367,4.64746l-27.61194,59.82568L287.01514,416H227.791l-52.79493-64.52637a63.73226,63.73226,0,0,0-47.96679-23.43017v-1.36573A25.009,25.009,0,0,0,144,303.0293V254.62378A23.99787,23.99787,0,0,0,136,208H77.58838a45.58892,45.58892,0,0,0-39.0918,69.044L56,306.21582v24.12549A56.09167,56.09167,0,0,0,16,384V496H32V384a40.04552,40.04552,0,0,1,40-40h53.46289a47.82286,47.82286,0,0,1,37.1499,17.60547l55.1958,67.46094A8.00057,8.00057,0,0,0,224,432h40v32H206.25146a24.036,24.036,0,0,1-17.83886-7.94434l-62.46631-69.40722-11.89258,10.70312L144,430.62549V496h16V448.40332l16.52,18.35547A40.05888,40.05888,0,0,0,206.25146,480h27.12476A24.0384,24.0384,0,0,0,256,496H408a24.0275,24.0275,0,0,0,24-24V457.75732l47.26367-102.40478A8,8,0,0,0,472,344ZM119.0293,312a8.91273,8.91273,0,0,1-6.34326-2.62793L104,300.686V274.42188L116.28125,256H128v47.0293A8.98108,8.98108,0,0,1,119.0293,312ZM48,253.58887A29.62219,29.62219,0,0,1,77.58838,224H136a8,8,0,0,1,0,16H112a7.99943,7.99943,0,0,0-6.65625,3.5625l-16,24A7.99836,7.99836,0,0,0,88,272v24H68.5293l-16.313-27.18848A29.59563,29.59563,0,0,1,48,253.58887ZM72,312H92.686l8.68652,8.68652a24.86146,24.86146,0,0,0,9.65674,6.00342V328H72ZM280,432h8a7.97509,7.97509,0,0,0,1.94043-.23926l28.78516-7.19629L351.53467,444.251a.96141.96141,0,0,1,.46533.82129.95771.95771,0,0,1-1.14648.93945l-29.28467-5.85645a8.00338,8.00338,0,0,0-6.36865,1.44434l-27.7334,20.7998A8.04886,8.04886,0,0,1,282.6665,464H280Zm17.06641,43.2002L312,464h16v8a23.88129,23.88129,0,0,0,1.37622,8H282.6665A24.15378,24.15378,0,0,0,297.06641,475.2002ZM416,472a8.00917,8.00917,0,0,1-8,8H352a8.00917,8.00917,0,0,1-8-8v-8h72Zm2.88135-24H367.72217a16.75917,16.75917,0,0,0-7.95557-17.46973l-27.56653-16.54L357.11865,360H459.49658Z"/><path d="M472,16H96A24.02718,24.02718,0,0,0,72,40V192H88V40a8.00917,8.00917,0,0,1,8-8H472a8.00917,8.00917,0,0,1,8,8V304a8.00917,8.00917,0,0,1-8,8H160v16H472a24.02718,24.02718,0,0,0,24-24V40A24.02718,24.02718,0,0,0,472,16Z"/><circle cx="104" cy="48" r="8"/><circle cx="128" cy="48" r="8"/><circle cx="152" cy="48" r="8"/><path d="M432,96H384a8.00008,8.00008,0,0,0-8,8v24H336a8.00008,8.00008,0,0,0-8,8v32H288a8.00008,8.00008,0,0,0-8,8v32H240a8.00008,8.00008,0,0,0-8,8v24H192a8.00008,8.00008,0,0,0-8,8v32H168v16H456V280H440V104A8.00008,8.00008,0,0,0,432,96ZM200,256h32v24H200Zm48-32h32v56H248Zm48-40h32v96H296Zm48-40h32V280H344Zm80,136H392V112h32Z"/><path d="M144,192h33.37622a23.9978,23.9978,0,0,0,45.585-14.98169l41.60645-30.65723a23.991,23.991,0,0,0,37.55273-27.67016l36.41675-26.8335A23.98056,23.98056,0,0,0,374.62378,80H424V64H374.62378a23.9978,23.9978,0,0,0-45.585,14.98169l-37.77454,27.834a23.98415,23.98415,0,0,0-34.83764,25.66968l-42.96375,31.65723A23.98056,23.98056,0,0,0,177.37622,176H144ZM352,64a8,8,0,1,1-8,8A8.00917,8.00917,0,0,1,352,64Zm-72,56a8,8,0,1,1-8,8A8.00917,8.00917,0,0,1,280,120Zm-80,56a8,8,0,1,1-8,8A8.00917,8.00917,0,0,1,200,176Z"/><rect x="440" y="64" width="16" height="16"/><rect x="112" y="176" width="16" height="16"/></svg>
