<svg height="512pt" viewBox="0 0 512.11818 512" width="512pt" xmlns="http://www.w3.org/2000/svg"><path d="m224.003906 440.058594h64v16h-64zm0 0"/><path d="m288.003906 424.058594v-58.09375c20.078125-13.984375 28.757813-39.382813 21.429688-62.726563-7.328125-23.347656-28.960938-39.230469-53.429688-39.230469s-46.105468 15.882813-53.429687 39.230469c-7.328125 23.34375 1.347656 48.742188 21.429687 62.726563v58.09375zm-72-104c-.015625-19.414063 13.914063-36.039063 33.03125-39.421875 19.117188-3.382813 37.90625 7.453125 44.550782 25.699219 6.644531 18.242187-.769532 38.625-17.582032 48.332031l-4 2.3125v51.078125h-32v-51.078125l-4-2.3125c-12.34375-7.164063-19.957031-20.339844-20-34.609375zm0 0"/><path d="m24.003906 288.058594c10.132813-.042969 19.148438-6.445313 22.527344-16h54.664062l40 32h42.808594v-16h-37.191406l-40-32h-26.808594v-32h352v32h-26.808594l-40 32h-37.191406v16h42.808594l40-32h54.664062c3.894532 11.019531 15.164063 17.632812 26.683594 15.65625 11.519532-1.976563 19.941406-11.96875 19.941406-23.65625s-8.421874-21.675782-19.941406-23.652344c-11.519531-1.976562-22.789062 4.632812-26.683594 15.652344h-17.472656v-48h-32v-48c0-88.363282-71.636718-160.0000002-160-160.0000002-88.367187 0-160 71.6367182-160 160.0000002v48h-32v48h-17.472656c-4.089844-11.476563-16.136719-18.058594-28.003906-15.296875-11.867188 2.765625-19.769532 13.992187-18.367188 26.09375 1.398438 12.101562 11.660156 21.226562 23.84375 21.203125zm464-32c4.417969 0 8 3.582031 8 8 0 4.417968-3.582031 8-8 8-4.417968 0-8-3.582032-8-8 0-4.417969 3.582032-8 8-8zm-152-48h-160v-48c0-44.183594 35.816406-80 80-80 44.179688 0 80 35.816406 80 80zm-224-48c0-79.527344 64.46875-144 144-144 79.527344 0 144 64.472656 144 144v48h-48v-48c0-53.019532-42.980468-96-96-96-53.019531 0-96 42.980468-96 96v48h-48zm-88 96c4.417969 0 8 3.582031 8 8 0 4.417968-3.582031 8-8 8-4.417968 0-8-3.582032-8-8 0-4.417969 3.582032-8 8-8zm0 0"/><path d="m488.003906 408.058594c-10.136718.042968-19.152344 6.445312-22.527344 16h-46.160156l-56-56h-51.3125v16h44.6875l16 16h-68.6875v16h84.6875l24 24h19.3125v56h-352v-80h128v-16h-155.3125l-18.402344 18.402344c-3.203124-1.570313-6.71875-2.390626-10.285156-2.402344-13.257812 0-23.99999975 10.746094-23.99999975 24s10.74218775 24 23.99999975 24c13.253906 0 24-10.746094 24-24-.015625-3.5625-.835937-7.078125-2.402344-10.28125l13.714844-13.71875h4.6875v96h384v-72h17.472656c4.085938 11.476562 16.136719 18.058594 28 15.296875 11.867188-2.761719 19.769532-13.988281 18.371094-26.09375-1.402344-12.101563-11.660156-21.222657-23.84375-21.203125zm-464 40c-4.417968 0-8-3.582032-8-8 0-4.417969 3.582032-8 8-8 4.417969 0 8 3.582031 8 8 0 4.417968-3.582031 8-8 8zm464-8c-4.417968 0-8-3.582032-8-8 0-4.417969 3.582032-8 8-8 4.417969 0 8 3.582031 8 8 0 4.417968-3.582031 8-8 8zm0 0"/><path d="m125.339844 344.058594h58.664062v-16h-53.335937l-32-24h-98.66406275v16h93.33593775zm0 0"/><path d="m200.003906 368.058594h-92.6875l-32-32h-75.31249975v16h68.68749975l16 16h-84.68749975v16h199.99999975zm0 0"/><path d="m365.195312 336.058594h-37.191406v16h76.6875l24 24h36.800782c3.894531 11.019531 15.164062 17.632812 26.683593 15.65625 11.519531-1.976563 19.941407-11.96875 19.941407-23.65625s-8.421876-21.675782-19.941407-23.652344-22.789062 4.632812-26.683593 15.652344h-30.160157l-24-24h-20.519531l20-16h101.191406v-16h-106.808594zm122.808594 24c4.417969 0 8 3.582031 8 8 0 4.417968-3.582031 8-8 8-4.417968 0-8-3.582032-8-8 0-4.417969 3.582032-8 8-8zm0 0"/></svg>