<svg width="320" height="350" viewBox="0 0 320 350" fill="none" xmlns="http://www.w3.org/2000/svg">
<rect width="320" height="350" fill="#E5E5E5"/>
<path d="M80.6361 209.872C81.0326 210.896 81.8067 211.67 82.7892 212.109L99.8017 219.572L105.946 213.468L89.7284 206.361L119.884 137.69V199.462L127.93 191.414V113.605H205.756L213.844 105.515H123.897C121.66 105.515 119.863 107.355 119.863 109.592V117.64L80.6997 206.779C80.2813 207.762 80.239 208.89 80.637 209.873L80.6361 209.872Z" fill="#5E5E5E"/>
<path d="M219.05 204.71H213.157V198.46C213.157 183.722 201.077 171.639 186.301 171.639H174.263L133.177 212.758H186.384L173.134 242.903L124.376 221.559L118.274 227.664L173.592 251.954C174.136 252.184 174.678 252.31 175.244 252.31C176.77 252.31 178.253 251.411 178.922 249.885L195.181 212.78H223.081C225.318 212.78 227.115 210.982 227.115 208.745V118.77L219.07 126.818V204.709L219.05 204.71Z" fill="#5E5E5E"/>
<path d="M154.514 139.529C154.514 146.364 158.15 152.385 163.625 155.709L189.728 129.62C186.364 124.143 180.344 120.507 173.51 120.507C162.998 120.527 154.514 129.014 154.514 139.529Z" fill="#5E5E5E"/>
<path d="M233.848 93.2259L80.6361 246.478C79.1098 248.005 79.1098 250.471 80.6361 251.998C81.4087 252.77 82.3912 253.147 83.3942 253.147C84.3972 253.147 85.4001 252.77 86.1523 251.998L239.364 98.7451C240.89 97.2184 240.89 94.7527 239.364 93.2259C237.861 91.6992 235.374 91.6992 233.848 93.2259Z" fill="#5E5E5E"/>
</svg>
