<svg width="47" height="47" viewBox="0 0 47 47" fill="none" xmlns="http://www.w3.org/2000/svg">
<rect x="-0.5" y="0.5" width="44.9548" height="44.9548" rx="22.4774" transform="matrix(-1 0 0 1 45.6989 0.660889)" stroke="#F2411A"/>
<path d="M16.6736 19.5672C16.3178 22.1483 17.382 24.4888 19.1554 25.9962C19.8809 26.6153 20.3715 27.4648 20.5453 28.4025V32.6677H21.0453M16.6736 19.5672L17.1688 19.636C17.1689 19.6359 17.1689 19.6358 17.1689 19.6357M16.6736 19.5672L17.1689 19.6355C17.1689 19.6356 17.1689 19.6356 17.1689 19.6357M16.6736 19.5672C17.1191 16.3603 19.6828 13.7577 22.904 13.3884C22.9093 13.3874 22.9146 13.3877 22.9199 13.3881C22.9225 13.3883 22.9252 13.3884 22.9278 13.3884C23.1947 13.3559 23.4599 13.3408 23.722 13.3376L26.3988 32.6677M17.1689 19.6357C16.8385 22.033 17.8245 24.2087 19.4793 25.6152L19.48 25.6158C20.2926 26.3094 20.8423 27.261 21.0369 28.3115L21.0453 28.3566V28.4025V32.6677M17.1689 19.6357C17.5832 16.6547 19.9609 14.2425 22.9331 13.8884H22.9582L22.9884 13.8848C23.234 13.8548 23.4805 13.8406 23.7274 13.8376C27.3639 13.8041 30.3697 16.8127 30.3697 20.4615C30.3697 22.4482 29.4525 24.1946 28.2145 25.437C27.1609 26.4178 26.4734 27.7135 26.4734 29.0474V29.4909H26.3988V29.9909V32.6677M21.0453 32.6677H22.356H22.6433L22.788 32.9159C22.981 33.2469 23.3265 33.4619 23.722 33.4619C24.1175 33.4619 24.4631 33.2469 24.656 32.9159L24.8007 32.6677H25.088H26.3988M21.0453 32.6677V33.1677M21.0453 33.1677H22.356C22.6324 33.6418 23.1367 33.9619 23.722 33.9619C24.3073 33.9619 24.8116 33.6418 25.088 33.1677H21.0453ZM21.0453 33.1677L26.3988 32.6677M16.015 13.9588L16.4252 13.5493L17.3809 14.5051L16.9713 14.9147L16.015 13.9588ZM23.715 14.426L23.6007 14.4276L23.5942 14.4309C23.4084 14.4391 23.2231 14.456 23.0389 14.4814C20.3215 14.7858 18.1187 16.9776 17.7413 19.6979L17.7413 19.6982C17.4359 21.9122 18.3538 23.8705 19.8722 25.16C20.8623 26.0087 21.4 27.2027 21.5623 28.467L21.6183 28.9033H22.0582H25.532H25.9691L26.0275 28.4701C26.2044 27.1566 26.8344 25.9462 27.8087 25.0478L28.1915 24.6948L28.1396 24.6429C29.1022 23.5408 29.7813 22.0964 29.7813 20.4615C29.7813 17.1236 27.07 14.3792 23.715 14.426ZM22.1336 29.4917H21.6336V29.9917V31.5801V32.0801H22.1336H25.3104H25.8104V31.5801V29.9917V29.4917H25.3104H22.1336ZM30.0625 14.505L31.0188 13.5492L31.4286 13.9593L30.4726 14.9148L30.0625 14.505ZM14.486 21.5498H13.1034V20.9615H14.486V21.5498ZM34.3406 21.5498H32.9581V20.9615H34.3406V21.5498ZM17.3804 28.0063L16.4256 28.962L16.0156 28.5519L16.9712 27.5968L17.3804 28.0063ZM31.0183 28.9621L30.063 28.0063L30.4727 27.5966L31.4284 28.5519L31.0183 28.9621Z" fill="white" stroke="#F2411A"/>
</svg>
