<svg width="26" height="27" viewBox="0 0 26 27" fill="none" xmlns="http://www.w3.org/2000/svg">
<path d="M21.2848 0.641113H4.7135C3.50498 0.641113 2.34588 1.1214 1.49105 1.97591C0.636521 2.83074 0.15625 3.98984 0.15625 5.19836V21.7696C0.15625 22.9781 0.636535 24.1372 1.49105 24.9921C2.34588 25.8466 3.50498 26.3269 4.7135 26.3269H21.2848C22.4933 26.3269 23.6524 25.8466 24.5072 24.9921C25.3617 24.1372 25.842 22.9781 25.842 21.7696V5.19836C25.842 3.98984 25.3617 2.83074 24.5072 1.97591C23.6524 1.12138 22.4933 0.641113 21.2848 0.641113ZM23.3562 21.7695C23.3562 22.3188 23.138 22.8456 22.7496 23.2343C22.3609 23.6227 21.8341 23.8409 21.2847 23.8409H4.71348C4.16413 23.8409 3.63731 23.6227 3.24863 23.2343C2.86024 22.8457 2.64206 22.3188 2.64206 21.7695V5.19821C2.64206 4.64886 2.86024 4.12204 3.24863 3.73336C3.6373 3.34497 4.16411 3.12679 4.71348 3.12679H11.7562V9.75544H14.242V3.12679H21.2847C21.8341 3.12679 22.3609 3.34497 22.7496 3.73336C23.138 4.12203 23.3562 4.64884 23.3562 5.19821V21.7695Z" fill="white"/>
</svg>
