<svg width="106" height="197" viewBox="0 0 106 197" fill="none" xmlns="http://www.w3.org/2000/svg">
<path d="M105.486 13.2618H104.823V17.4572H105.486V13.2618Z" fill="#407BFF"/>
<path d="M105.492 9.85074H104.855C104.851 7.40719 103.879 5.06479 102.15 3.33754C100.422 1.61028 98.0786 0.639275 95.6351 0.637588V0C98.2457 0.00839637 100.747 1.04873 102.594 2.89411C104.44 4.73948 105.482 7.24016 105.492 9.85074Z" fill="#407BFF"/>
<path d="M95.6096 2.29532H7.60964C3.43338 2.29532 0.0478516 5.68085 0.0478516 9.85711V189.338C0.0478516 193.514 3.43338 196.9 7.60964 196.9H95.6096C99.7858 196.9 103.171 193.514 103.171 189.338V9.85711C103.171 5.68085 99.7858 2.29532 95.6096 2.29532Z" fill="#407BFF"/>
<path opacity="0.95" d="M99.7411 189.338L99.7411 9.85074C99.7411 7.28371 97.6602 5.20272 95.0931 5.20272L7.09321 5.20272C4.52618 5.20272 2.44518 7.28371 2.44518 9.85074L2.44518 189.338C2.44518 191.905 4.52618 193.986 7.09321 193.986H95.0931C97.6602 193.986 99.7411 191.905 99.7411 189.338Z" fill="white"/>
<path d="M51.0932 186.781C53.9982 186.781 56.3533 184.426 56.3533 181.521C56.3533 178.616 53.9982 176.261 51.0932 176.261C48.1881 176.261 45.8331 178.616 45.8331 181.521C45.8331 184.426 48.1881 186.781 51.0932 186.781Z" fill="#407BFF"/>
<path d="M47.0764 4.67352C47.0764 5.82509 47.5338 6.92949 48.3481 7.74376C49.1624 8.55804 50.2668 9.0155 51.4183 9.0155C52.5699 9.0155 53.6743 8.55804 54.4886 7.74376C55.3028 6.92949 55.7603 5.82509 55.7603 4.67352H47.0764Z" fill="#407BFF"/>
<path opacity="0.7" d="M79.8101 23.5143H23.0648C20.7502 23.521 18.5323 24.4434 16.8957 26.0801C15.259 27.7168 14.3366 29.9346 14.3298 32.2492V38.0768C14.3366 40.3914 15.259 42.6092 16.8957 44.2459C18.5323 45.8825 20.7502 46.805 23.0648 46.8117H79.8101L88.5451 51.9889V32.2237C88.53 29.9141 87.6041 27.7037 85.9685 26.0729C84.3329 24.4421 82.1198 23.5226 79.8101 23.5143Z" fill="#407BFF"/>
<path d="M78.2289 31.8603H24.6141V33.314H78.2289V31.8603Z" fill="white"/>
<path d="M78.2289 37.0184H34.9303V38.4721H78.2289V37.0184Z" fill="white"/>
<path opacity="0.15" d="M23.0329 62.3051H79.7782C82.0928 62.3118 84.3107 63.2343 85.9473 64.871C87.584 66.5076 88.5065 68.7255 88.5132 71.0401V76.8613C88.5065 79.1758 87.584 81.3937 85.9473 83.0304C84.3107 84.667 82.0928 85.5895 79.7782 85.5962H23.0329L14.2979 90.7734V71.0082C14.3114 68.6986 15.237 66.488 16.8731 64.8578C18.5092 63.2277 20.7233 62.3101 23.0329 62.3051Z" fill="#407BFF"/>
<path opacity="0.5" d="M78.2289 70.6448H24.6141V72.0985H78.2289V70.6448Z" fill="#407BFF"/>
<path opacity="0.5" d="M49.48 75.8029H24.6141V77.2566H49.48V75.8029Z" fill="#407BFF"/>
<path opacity="0.5" d="M63.4687 75.8029H53.3566V77.2566H63.4687V75.8029Z" fill="#407BFF"/>
<path opacity="0.7" d="M79.8101 101.09H23.0648C20.7502 101.096 18.5323 102.019 16.8957 103.655C15.259 105.292 14.3366 107.51 14.3298 109.825V115.646C14.3349 117.961 15.2568 120.18 16.8938 121.817C18.5309 123.454 20.7497 124.376 23.0648 124.381H79.8101L88.5451 129.558V109.793C88.5283 107.484 87.6016 105.275 85.9662 103.646C84.3308 102.017 82.1187 101.098 79.8101 101.09Z" fill="#407BFF"/>
<path d="M78.2289 109.429H24.6141V110.883H78.2289V109.429Z" fill="white"/>
<path d="M78.2289 114.587H34.9303V116.041H78.2289V114.587Z" fill="white"/>
<path opacity="0.15" d="M23.0329 139.874H45.1126C47.4266 139.882 49.6435 140.805 51.2798 142.442C52.9161 144.078 53.8391 146.295 53.8475 148.609V154.437C53.8391 156.751 52.9161 158.968 51.2798 160.604C49.6435 162.24 47.4266 163.163 45.1126 163.172H23.0329L14.2979 168.342V148.609C14.3046 146.294 15.2271 144.077 16.8638 142.44C18.5004 140.803 20.7183 139.881 23.0329 139.874Z" fill="#407BFF"/>
<path opacity="0.5" d="M27.4578 151.523C27.4578 152.027 27.3082 152.52 27.028 152.94C26.7477 153.359 26.3494 153.686 25.8834 153.879C25.4174 154.072 24.9046 154.123 24.4099 154.024C23.9151 153.926 23.4607 153.683 23.104 153.326C22.7474 152.97 22.5045 152.515 22.4061 152.02C22.3077 151.526 22.3582 151.013 22.5512 150.547C22.7442 150.081 23.0711 149.683 23.4905 149.402C23.9099 149.122 24.403 148.972 24.9074 148.972C25.5812 148.981 26.2251 149.252 26.7016 149.729C27.1781 150.205 27.4495 150.849 27.4578 151.523Z" fill="#407BFF"/>
<path opacity="0.5" d="M32.6159 152.046C34.042 152.046 35.1981 150.89 35.1981 149.463C35.1981 148.037 34.042 146.881 32.6159 146.881C31.1897 146.881 30.0336 148.037 30.0336 149.463C30.0336 150.89 31.1897 152.046 32.6159 152.046Z" fill="#407BFF"/>
<path opacity="0.5" d="M42.9321 154.615C42.9321 155.12 42.7825 155.613 42.5023 156.032C42.222 156.451 41.8237 156.778 41.3577 156.971C40.8917 157.164 40.3789 157.215 39.8842 157.116C39.3894 157.018 38.935 156.775 38.5783 156.419C38.2217 156.062 37.9788 155.607 37.8804 155.113C37.782 154.618 37.8325 154.105 38.0255 153.639C38.2185 153.173 38.5454 152.775 38.9648 152.495C39.3842 152.214 39.8773 152.065 40.3817 152.065C41.0581 152.065 41.7068 152.333 42.1851 152.812C42.6634 153.29 42.9321 153.939 42.9321 154.615Z" fill="#407BFF"/>
</svg>
